IBM Plex Thai Looped-Regular.ufo
<glyph name="four" format="1">
  <advance width="600"/>
  <unicode hex="0034"/>
  <outline>
    <contour>
      <point x="455" y="0" type="line" name="hr00"/>
      <point x="455" y="137" type="line"/>
      <point x="556" y="137" type="line"/>
      <point x="556" y="207" type="line"/>
      <point x="455" y="207" type="line"/>
      <point x="455" y="698" type="line"/>
      <point x="330" y="698" type="line"/>
      <point x="38" y="211" type="line"/>
      <point x="38" y="137" type="line"/>
      <point x="375" y="137" type="line"/>
      <point x="375" y="0" type="line"/>
    </contour>
    <contour>
      <point x="370" y="633" type="line"/>
      <point x="375" y="633" type="line"/>
      <point x="375" y="207" type="line"/>
      <point x="117" y="207" type="line"/>
    </contour>
  </outline>
</glyph>
<glyph name="Lslash" format="1">
  <advance width="508"/>
  <unicode hex="0141"/>
  <outline>
    <contour>
      <point x="477" y="75" type="line" name="hr00"/>
      <point x="180" y="75" type="line"/>
      <point x="180" y="298" type="line"/>
      <point x="361" y="357" type="line"/>
      <point x="361" y="428" type="line"/>
      <point x="180" y="367" type="line"/>
      <point x="180" y="698" type="line"/>
      <point x="96" y="698" type="line"/>
      <point x="96" y="339" type="line"/>
      <point x="-7" y="304" type="line"/>
      <point x="-7" y="237" type="line"/>
      <point x="96" y="271" type="line"/>
      <point x="96" y="0" type="line"/>
      <point x="477" y="0" type="line"/>
    </contour>
  </outline>
</glyph>
<glyph name="koKai-thai" format="1">
  <advance width="671"/>
  <unicode hex="0E01"/>
  <outline>
    <contour>
      <point x="149" y="0" type="line" name="hr00"/>
      <point x="229" y="0" type="line"/>
      <point x="229" y="309" type="line" smooth="yes"/>
      <point x="229" y="339"/>
      <point x="215" y="354"/>
      <point x="188" y="364" type="curve" smooth="yes"/>
      <point x="135" y="384" type="line"/>
      <point x="155" y="454"/>
      <point x="228" y="498"/>
      <point x="317" y="498" type="curve" smooth="yes"/>
      <point x="421" y="498"/>
      <point x="491" y="439"/>
      <point x="491" y="331" type="curve" smooth="yes"/>
      <point x="491" y="0" type="line"/>
      <point x="571" y="0" type="line"/>
      <point x="571" y="341" type="line" smooth="yes"/>
      <point x="571" y="474"/>
      <point x="474" y="558"/>
      <point x="325" y="558" type="curve" smooth="yes"/>
      <point x="172" y="558"/>
      <point x="70" y="470"/>
      <point x="61" y="348" type="curve"/>
      <point x="149" y="312" type="line"/>
    </contour>
    <contour>
      <point x="571.0" y="0.0" type="move" name="bottomright"/>
    </contour>
    <contour>
      <point x="341.0" y="558.0" type="move" name="top"/>
    </contour>
    <contour>
      <point x="571.0" y="600.0" type="move" name="topright"/>
    </contour>
  </outline>
</glyph>
<glyph name="khoKhai-thai" format="1">
  <advance width="634"/>
  <unicode hex="0E02"/>
  <outline>
    <contour>
      <point x="331" y="-12" type="curve" smooth="yes"/>
      <point x="448" y="-12"/>
      <point x="532" y="60"/>
      <point x="532" y="170" type="curve" smooth="yes"/>
      <point x="532" y="546" type="line"/>
      <point x="452" y="546" type="line"/>
      <point x="452" y="173" type="line" smooth="yes"/>
      <point x="452" y="99"/>
      <point x="406" y="48"/>
      <point x="331" y="48" type="curve" smooth="yes"/>
      <point x="256" y="48"/>
      <point x="216" y="93"/>
      <point x="216" y="156" type="curve" smooth="yes"/>
      <point x="216" y="169" type="line" smooth="yes"/>
      <point x="216" y="218"/>
      <point x="239" y="251"/>
      <point x="275" y="292" type="curve" smooth="yes"/>
      <point x="313" y="336"/>
      <point x="334" y="369"/>
      <point x="334" y="426" type="curve" smooth="yes"/>
      <point x="334" y="505"/>
      <point x="279" y="558"/>
      <point x="179" y="558" type="curve" smooth="yes" name="hr01"/>
      <point x="82" y="558"/>
      <point x="27" y="496"/>
      <point x="27" y="429" type="curve" smooth="yes"/>
      <point x="27" y="373"/>
      <point x="60" y="334"/>
      <point x="117" y="334" type="curve" smooth="yes"/>
      <point x="174" y="334"/>
      <point x="207" y="373"/>
      <point x="207" y="419" type="curve" smooth="yes"/>
      <point x="207" y="465"/>
      <point x="174" y="493"/>
      <point x="130" y="493" type="curve" smooth="yes"/>
      <point x="124" y="493"/>
      <point x="119" y="492"/>
      <point x="114" y="491" type="curve"/>
      <point x="112" y="496" type="line"/>
      <point x="126" y="501"/>
      <point x="144" y="504"/>
      <point x="165" y="504" type="curve" smooth="yes"/>
      <point x="227" y="504"/>
      <point x="264" y="478"/>
      <point x="264" y="423" type="curve" smooth="yes"/>
      <point x="264" y="378"/>
      <point x="243" y="349"/>
      <point x="205" y="305" type="curve" smooth="yes"/>
      <point x="164" y="258"/>
      <point x="136" y="222"/>
      <point x="136" y="156" type="curve" smooth="yes" name="hr02"/>
      <point x="136" y="54"/>
      <point x="214" y="-12"/>
    </contour>
    <contour>
      <point x="119" y="375" type="curve" smooth="yes"/>
      <point x="93" y="375"/>
      <point x="76" y="393"/>
      <point x="76" y="421" type="curve" smooth="yes"/>
      <point x="76" y="449"/>
      <point x="93" y="467"/>
      <point x="119" y="467" type="curve" smooth="yes"/>
      <point x="145" y="467"/>
      <point x="162" y="449"/>
      <point x="162" y="421" type="curve" smooth="yes" name="hr03"/>
      <point x="162" y="393"/>
      <point x="145" y="375"/>
    </contour>
    <contour>
      <point x="532.0" y="0.0" type="move" name="bottomright"/>
    </contour>
    <contour>
      <point x="330.0" y="558.0" type="move" name="top"/>
    </contour>
    <contour>
      <point x="532.0" y="600.0" type="move" name="topright"/>
    </contour>
  </outline>
</glyph>
<glyph name="khoKhwai-thai" format="1">
  <advance width="700"/>
  <unicode hex="0E04"/>
  <outline>
    <contour>
      <point x="100" y="0" type="line" name="hr00"/>
      <point x="180" y="0" type="line"/>
      <point x="180" y="123" type="line" smooth="yes"/>
      <point x="180" y="172"/>
      <point x="208" y="216"/>
      <point x="250" y="245" type="curve"/>
      <point x="252" y="244" type="line"/>
      <point x="252" y="235" type="line" smooth="yes"/>
      <point x="252" y="175"/>
      <point x="290" y="137"/>
      <point x="350" y="137" type="curve" smooth="yes"/>
      <point x="413" y="137"/>
      <point x="453" y="175"/>
      <point x="453" y="235" type="curve" smooth="yes"/>
      <point x="453" y="295"/>
      <point x="413" y="333"/>
      <point x="350" y="333" type="curve" smooth="yes"/>
      <point x="270" y="333"/>
      <point x="206" y="278"/>
      <point x="185" y="214" type="curve"/>
      <point x="180" y="214" type="line"/>
      <point x="180" y="334" type="line" smooth="yes"/>
      <point x="180" y="437"/>
      <point x="244" y="498"/>
      <point x="350" y="498" type="curve" smooth="yes"/>
      <point x="456" y="498"/>
      <point x="520" y="437"/>
      <point x="520" y="334" type="curve" smooth="yes"/>
      <point x="520" y="0" type="line"/>
      <point x="600" y="0" type="line"/>
      <point x="600" y="345" type="line" smooth="yes"/>
      <point x="600" y="475"/>
      <point x="505" y="558"/>
      <point x="350" y="558" type="curve" smooth="yes"/>
      <point x="195" y="558"/>
      <point x="100" y="475"/>
      <point x="100" y="345" type="curve" smooth="yes"/>
    </contour>
    <contour>
      <point x="350" y="181" type="curve" smooth="yes"/>
      <point x="320" y="181"/>
      <point x="301" y="202"/>
      <point x="301" y="235" type="curve" smooth="yes"/>
      <point x="301" y="268"/>
      <point x="320" y="289"/>
      <point x="350" y="289" type="curve" smooth="yes"/>
      <point x="380" y="289"/>
      <point x="399" y="268"/>
      <point x="399" y="235" type="curve" smooth="yes"/>
      <point x="399" y="202"/>
      <point x="380" y="181"/>
    </contour>
    <contour>
      <point x="600.0" y="0.0" type="move" name="bottomright"/>
    </contour>
    <contour>
      <point x="350.0" y="558.0" type="move" name="top"/>
    </contour>
    <contour>
      <point x="600.0" y="600.0" type="move" name="topright"/>
    </contour>
  </outline>
</glyph>
<glyph name="khoRakhang-thai" format="1">
  <advance width="660"/>
  <unicode hex="0E06"/>
  <outline>
    <contour>
      <point x="156" y="-12" type="curve" smooth="yes"/>
      <point x="219" y="-12"/>
      <point x="262" y="27"/>
      <point x="262" y="87" type="curve" smooth="yes"/>
      <point x="262" y="91"/>
      <point x="262" y="95"/>
      <point x="261" y="99" type="curve" name="hr01"/>
      <point x="481" y="0" type="line"/>
      <point x="556" y="0" type="line"/>
      <point x="556" y="546" type="line"/>
      <point x="476" y="546" type="line"/>
      <point x="476" y="64" type="line"/>
      <point x="472" y="64" type="line"/>
      <point x="261" y="160" type="line"/>
      <point x="261" y="194" type="line" smooth="yes"/>
      <point x="261" y="258"/>
      <point x="286" y="300"/>
      <point x="313" y="341" type="curve" smooth="yes"/>
      <point x="341" y="384"/>
      <point x="369" y="427"/>
      <point x="369" y="490" type="curve" smooth="yes"/>
      <point x="369" y="546" type="line"/>
      <point x="304" y="546" type="line"/>
      <point x="304" y="508" type="line" smooth="yes"/>
      <point x="304" y="450"/>
      <point x="263" y="415"/>
      <point x="214" y="403" type="curve"/>
      <point x="212" y="405" type="line"/>
      <point x="231" y="420"/>
      <point x="243" y="443"/>
      <point x="243" y="470" type="curve" smooth="yes" name="hr02"/>
      <point x="243" y="523"/>
      <point x="203" y="558"/>
      <point x="147" y="558" type="curve" smooth="yes"/>
      <point x="89" y="558"/>
      <point x="46" y="520"/>
      <point x="46" y="463" type="curve" smooth="yes"/>
      <point x="46" y="400"/>
      <point x="96" y="357"/>
      <point x="168" y="357" type="curve" smooth="yes"/>
      <point x="218" y="357"/>
      <point x="270" y="379"/>
      <point x="298" y="431" type="curve"/>
      <point x="304" y="428" type="line"/>
      <point x="289" y="398"/>
      <point x="268" y="375"/>
      <point x="248" y="352" type="curve" smooth="yes"/>
      <point x="213" y="312"/>
      <point x="181" y="274"/>
      <point x="181" y="220" type="curve" smooth="yes" name="hr03"/>
      <point x="181" y="205"/>
      <point x="182" y="193"/>
      <point x="185" y="183" type="curve"/>
      <point x="176" y="185"/>
      <point x="166" y="186"/>
      <point x="156" y="186" type="curve" smooth="yes"/>
      <point x="93" y="186"/>
      <point x="50" y="147"/>
      <point x="50" y="87" type="curve" smooth="yes"/>
      <point x="50" y="27"/>
      <point x="93" y="-12"/>
    </contour>
    <contour>
      <point x="156" y="32" type="curve" smooth="yes"/>
      <point x="123" y="32"/>
      <point x="104" y="51"/>
      <point x="104" y="79" type="curve" smooth="yes"/>
      <point x="104" y="95" type="line" smooth="yes"/>
      <point x="104" y="123"/>
      <point x="123" y="142"/>
      <point x="156" y="142" type="curve" smooth="yes"/>
      <point x="189" y="142"/>
      <point x="208" y="123"/>
      <point x="208" y="95" type="curve" smooth="yes" name="hr04"/>
      <point x="208" y="79" type="line" smooth="yes"/>
      <point x="208" y="51"/>
      <point x="189" y="32"/>
    </contour>
    <contour>
      <point x="147" y="410" type="curve" smooth="yes"/>
      <point x="117" y="410"/>
      <point x="100" y="430"/>
      <point x="100" y="462" type="curve" smooth="yes"/>
      <point x="100" y="494"/>
      <point x="117" y="514"/>
      <point x="147" y="514" type="curve" smooth="yes"/>
      <point x="177" y="514"/>
      <point x="194" y="494"/>
      <point x="194" y="462" type="curve" smooth="yes" name="hr05"/>
      <point x="194" y="430"/>
      <point x="177" y="410"/>
    </contour>
    <contour>
      <point x="555.0" y="0.0" type="move" name="bottomright"/>
    </contour>
    <contour>
      <point x="389.0" y="558.0" type="move" name="top"/>
    </contour>
    <contour>
      <point x="555.0" y="600.0" type="move" name="topright"/>
    </contour>
  </outline>
</glyph>
<glyph name="choChan-thai" format="1">
  <advance width="627"/>
  <unicode hex="0E08"/>
  <outline>
    <contour>
      <point x="393" y="-12" type="curve" smooth="yes"/>
      <point x="471" y="-12"/>
      <point x="527" y="34"/>
      <point x="527" y="108" type="curve" smooth="yes"/>
      <point x="527" y="358" type="line" smooth="yes"/>
      <point x="527" y="480"/>
      <point x="437" y="558"/>
      <point x="288" y="558" type="curve" smooth="yes"/>
      <point x="153" y="558"/>
      <point x="77" y="510"/>
      <point x="31" y="436" type="curve"/>
      <point x="82" y="390" type="line"/>
      <point x="123" y="457"/>
      <point x="188" y="498"/>
      <point x="283" y="498" type="curve" smooth="yes"/>
      <point x="384" y="498"/>
      <point x="447" y="445"/>
      <point x="447" y="352" type="curve" smooth="yes"/>
      <point x="447" y="110" type="line" smooth="yes"/>
      <point x="447" y="70"/>
      <point x="425" y="48"/>
      <point x="392" y="48" type="curve" smooth="yes"/>
      <point x="359" y="48"/>
      <point x="337" y="70"/>
      <point x="337" y="110" type="curve" smooth="yes"/>
      <point x="337" y="267" type="line" smooth="yes"/>
      <point x="337" y="326"/>
      <point x="293" y="364"/>
      <point x="229" y="364" type="curve" smooth="yes"/>
      <point x="165" y="364"/>
      <point x="121" y="326"/>
      <point x="121" y="267" type="curve" smooth="yes"/>
      <point x="121" y="208"/>
      <point x="165" y="170"/>
      <point x="229" y="170" type="curve" smooth="yes"/>
      <point x="239" y="170"/>
      <point x="249" y="171"/>
      <point x="259" y="173" type="curve" name="hr01"/>
      <point x="259" y="108" type="line" smooth="yes"/>
      <point x="259" y="34"/>
      <point x="315" y="-12"/>
    </contour>
    <contour>
      <point x="226" y="214" type="curve" smooth="yes"/>
      <point x="195" y="214"/>
      <point x="175" y="235"/>
      <point x="175" y="267" type="curve" smooth="yes"/>
      <point x="175" y="299"/>
      <point x="195" y="320"/>
      <point x="226" y="320" type="curve" smooth="yes"/>
      <point x="257" y="320"/>
      <point x="277" y="299"/>
      <point x="277" y="267" type="curve" smooth="yes" name="hr02"/>
      <point x="277" y="235"/>
      <point x="257" y="214"/>
    </contour>
    <contour>
      <point x="525.0" y="0.0" type="move" name="bottomright"/>
    </contour>
    <contour>
      <point x="307.0" y="558.0" type="move" name="top"/>
    </contour>
    <contour>
      <point x="525.0" y="600.0" type="move" name="topright"/>
    </contour>
  </outline>
</glyph>
<glyph name="yoYing-thai" format="1">
  <advance width="956"/>
  <unicode hex="0E0D"/>
  <outline>
    <contour>
      <point x="672" y="-12" type="curve" smooth="yes"/>
      <point x="786" y="-12"/>
      <point x="856" y="59"/>
      <point x="856" y="160" type="curve" smooth="yes"/>
      <point x="856" y="546" type="line"/>
      <point x="776" y="546" type="line"/>
      <point x="776" y="167" type="line" smooth="yes"/>
      <point x="776" y="98"/>
      <point x="741" y="48"/>
      <point x="672" y="48" type="curve" smooth="yes"/>
      <point x="603" y="48"/>
      <point x="568" y="98"/>
      <point x="568" y="167" type="curve" smooth="yes"/>
      <point x="568" y="341" type="line" smooth="yes"/>
      <point x="568" y="474"/>
      <point x="477" y="558"/>
      <point x="314" y="558" type="curve" smooth="yes" name="hr01"/>
      <point x="175" y="558"/>
      <point x="70" y="470"/>
      <point x="61" y="349" type="curve"/>
      <point x="150" y="311" type="line"/>
      <point x="150" y="85" type="line" smooth="yes"/>
      <point x="150" y="26"/>
      <point x="193" y="-12"/>
      <point x="256" y="-12" type="curve" smooth="yes"/>
      <point x="319" y="-12"/>
      <point x="362" y="26"/>
      <point x="362" y="85" type="curve" smooth="yes"/>
      <point x="362" y="144"/>
      <point x="319" y="182"/>
      <point x="256" y="182" type="curve" smooth="yes"/>
      <point x="247" y="182"/>
      <point x="238" y="181"/>
      <point x="230" y="180" type="curve" name="hr02"/>
      <point x="230" y="309" type="line" smooth="yes"/>
      <point x="230" y="339"/>
      <point x="216" y="354"/>
      <point x="189" y="364" type="curve" smooth="yes"/>
      <point x="136" y="384" type="line"/>
      <point x="155" y="455"/>
      <point x="228" y="498"/>
      <point x="317" y="498" type="curve" smooth="yes"/>
      <point x="420" y="498"/>
      <point x="488" y="440"/>
      <point x="488" y="331" type="curve" smooth="yes"/>
      <point x="488" y="160" type="line" smooth="yes"/>
      <point x="488" y="59"/>
      <point x="558" y="-12"/>
    </contour>
    <contour>
      <point x="483" y="-178" type="curve" smooth="yes" name="hr03"/>
      <point x="483" y="-256"/>
      <point x="547" y="-295"/>
      <point x="667" y="-295" type="curve" smooth="yes"/>
      <point x="783" y="-295"/>
      <point x="870" y="-251"/>
      <point x="870" y="-120" type="curve" smooth="yes"/>
      <point x="870" y="-113" type="line"/>
      <point x="790" y="-113" type="line"/>
      <point x="790" y="-120" type="line" smooth="yes"/>
      <point x="790" y="-207"/>
      <point x="743" y="-237"/>
      <point x="688" y="-237" type="curve" smooth="yes"/>
      <point x="620" y="-237" type="line"/>
      <point x="620" y="-235" type="line"/>
      <point x="649" y="-229"/>
      <point x="667" y="-200"/>
      <point x="667" y="-167" type="curve" smooth="yes"/>
      <point x="667" y="-120"/>
      <point x="629" y="-85"/>
      <point x="575" y="-85" type="curve" smooth="yes"/>
      <point x="521" y="-85"/>
      <point x="483" y="-120"/>
    </contour>
    <contour>
      <point x="259" y="32" type="curve" smooth="yes"/>
      <point x="229" y="32"/>
      <point x="210" y="53"/>
      <point x="210" y="85" type="curve" smooth="yes"/>
      <point x="210" y="117"/>
      <point x="229" y="138"/>
      <point x="259" y="138" type="curve" smooth="yes"/>
      <point x="289" y="138"/>
      <point x="308" y="117"/>
      <point x="308" y="85" type="curve" smooth="yes"/>
      <point x="308" y="53"/>
      <point x="289" y="32"/>
    </contour>
    <contour>
      <point x="575" y="-223" type="curve" smooth="yes"/>
      <point x="546" y="-223"/>
      <point x="531" y="-205"/>
      <point x="531" y="-176" type="curve" smooth="yes"/>
      <point x="531" y="-147"/>
      <point x="546" y="-129"/>
      <point x="575" y="-129" type="curve" smooth="yes"/>
      <point x="604" y="-129"/>
      <point x="619" y="-147"/>
      <point x="619" y="-176" type="curve" smooth="yes"/>
      <point x="619" y="-205"/>
      <point x="604" y="-223"/>
    </contour>
    <contour>
      <point x="528.0" y="558.0" type="move" name="top"/>
    </contour>
    <contour>
      <point x="856.0" y="598.0" type="move" name="topright"/>
    </contour>
  </outline>
</glyph>
<glyph name="doDek-thai" format="1">
  <advance width="700"/>
  <unicode hex="0E14"/>
  <outline>
    <contour>
      <point x="100" y="0" type="line" name="hr00"/>
      <point x="258" y="0" type="line"/>
      <point x="396" y="157" type="line" smooth="yes"/>
      <point x="427" y="193"/>
      <point x="447" y="221"/>
      <point x="447" y="259" type="curve" smooth="yes"/>
      <point x="447" y="315"/>
      <point x="408" y="351"/>
      <point x="350" y="351" type="curve" smooth="yes"/>
      <point x="292" y="351"/>
      <point x="253" y="315"/>
      <point x="253" y="259" type="curve" smooth="yes"/>
      <point x="253" y="208"/>
      <point x="284" y="174"/>
      <point x="333" y="168" type="curve"/>
      <point x="308" y="142" type="line"/>
      <point x="230" y="54" type="line"/>
      <point x="180" y="54" type="line"/>
      <point x="180" y="334" type="line" smooth="yes"/>
      <point x="180" y="437"/>
      <point x="244" y="498"/>
      <point x="350" y="498" type="curve" smooth="yes"/>
      <point x="456" y="498"/>
      <point x="520" y="437"/>
      <point x="520" y="334" type="curve" smooth="yes"/>
      <point x="520" y="0" type="line"/>
      <point x="600" y="0" type="line"/>
      <point x="600" y="345" type="line" smooth="yes"/>
      <point x="600" y="475"/>
      <point x="505" y="558"/>
      <point x="350" y="558" type="curve" smooth="yes"/>
      <point x="195" y="558"/>
      <point x="100" y="475"/>
      <point x="100" y="345" type="curve" smooth="yes"/>
    </contour>
    <contour>
      <point x="350" y="208" type="curve" smooth="yes"/>
      <point x="321" y="208"/>
      <point x="303" y="228"/>
      <point x="303" y="259" type="curve" smooth="yes"/>
      <point x="303" y="290"/>
      <point x="321" y="310"/>
      <point x="350" y="310" type="curve" smooth="yes"/>
      <point x="379" y="310"/>
      <point x="397" y="290"/>
      <point x="397" y="259" type="curve" smooth="yes"/>
      <point x="397" y="228"/>
      <point x="379" y="208"/>
    </contour>
    <contour>
      <point x="600.0" y="0.0" type="move" name="bottomright"/>
    </contour>
    <contour>
      <point x="350.0" y="558.0" type="move" name="top"/>
    </contour>
    <contour>
      <point x="600.0" y="600.0" type="move" name="topright"/>
    </contour>
  </outline>
</glyph>
<glyph name="toTao-thai" format="1">
  <advance width="720"/>
  <unicode hex="0E15"/>
  <outline>
    <contour>
      <point x="100" y="0" type="line" name="hr00"/>
      <point x="268" y="0" type="line"/>
      <point x="406" y="157" type="line" smooth="yes"/>
      <point x="437" y="193"/>
      <point x="457" y="221"/>
      <point x="457" y="259" type="curve" smooth="yes"/>
      <point x="457" y="315"/>
      <point x="418" y="351"/>
      <point x="360" y="351" type="curve" smooth="yes"/>
      <point x="302" y="351"/>
      <point x="263" y="315"/>
      <point x="263" y="259" type="curve" smooth="yes"/>
      <point x="263" y="208"/>
      <point x="294" y="174"/>
      <point x="343" y="168" type="curve"/>
      <point x="318" y="142" type="line"/>
      <point x="240" y="54" type="line"/>
      <point x="180" y="54" type="line"/>
      <point x="180" y="402" type="line" smooth="yes"/>
      <point x="180" y="453"/>
      <point x="206" y="485"/>
      <point x="249" y="487" type="curve"/>
      <point x="360" y="385" type="line"/>
      <point x="471" y="487" type="line"/>
      <point x="514" y="485"/>
      <point x="540" y="453"/>
      <point x="540" y="402" type="curve" smooth="yes"/>
      <point x="540" y="0" type="line"/>
      <point x="620" y="0" type="line"/>
      <point x="620" y="414" type="line" smooth="yes"/>
      <point x="620" y="500"/>
      <point x="564" y="558"/>
      <point x="463" y="558" type="curve"/>
      <point x="360" y="463" type="line"/>
      <point x="257" y="558" type="line"/>
      <point x="156" y="558"/>
      <point x="100" y="500"/>
      <point x="100" y="414" type="curve" smooth="yes"/>
    </contour>
    <contour>
      <point x="360" y="208" type="curve" smooth="yes"/>
      <point x="331" y="208"/>
      <point x="313" y="228"/>
      <point x="313" y="259" type="curve" smooth="yes"/>
      <point x="313" y="290"/>
      <point x="331" y="310"/>
      <point x="360" y="310" type="curve" smooth="yes"/>
      <point x="389" y="310"/>
      <point x="407" y="290"/>
      <point x="407" y="259" type="curve" smooth="yes"/>
      <point x="407" y="228"/>
      <point x="389" y="208"/>
    </contour>
    <contour>
      <point x="620.0" y="0.0" type="move" name="bottomright"/>
    </contour>
    <contour>
      <point x="360.0" y="558.0" type="move" name="top"/>
    </contour>
    <contour>
      <point x="620.0" y="600.0" type="move" name="topright"/>
    </contour>
  </outline>
</glyph>
<glyph name="thoThong-thai" format="1">
  <advance width="598"/>
  <unicode hex="0E18"/>
  <outline>
    <contour>
      <point x="311" y="-12" type="curve" smooth="yes"/>
      <point x="449" y="-12"/>
      <point x="526" y="37"/>
      <point x="526" y="135" type="curve" smooth="yes"/>
      <point x="526" y="205" type="line" smooth="yes"/>
      <point x="526" y="314"/>
      <point x="459" y="350"/>
      <point x="331" y="360" type="curve" smooth="yes"/>
      <point x="154" y="374" type="line"/>
      <point x="154" y="388" type="line" smooth="yes"/>
      <point x="154" y="462"/>
      <point x="217" y="498"/>
      <point x="316" y="498" type="curve" smooth="yes"/>
      <point x="404" y="498"/>
      <point x="458" y="464"/>
      <point x="490" y="425" type="curve"/>
      <point x="542" y="473" type="line"/>
      <point x="494" y="524"/>
      <point x="427" y="558"/>
      <point x="316" y="558" type="curve" smooth="yes"/>
      <point x="167" y="558"/>
      <point x="73" y="492"/>
      <point x="73" y="378" type="curve" smooth="yes"/>
      <point x="73" y="321" type="line"/>
      <point x="319" y="301" type="line" smooth="yes"/>
      <point x="446" y="291"/>
      <point x="446" y="250"/>
      <point x="446" y="193" type="curve" smooth="yes"/>
      <point x="446" y="127" type="line" smooth="yes"/>
      <point x="446" y="78"/>
      <point x="415" y="48"/>
      <point x="353" y="48" type="curve" smooth="yes"/>
      <point x="269" y="48" type="line" smooth="yes"/>
      <point x="207" y="48"/>
      <point x="176" y="78"/>
      <point x="176" y="127" type="curve" smooth="yes" name="hr01"/>
      <point x="176" y="243" type="line"/>
      <point x="96" y="243" type="line"/>
      <point x="96" y="135" type="line" smooth="yes"/>
      <point x="96" y="37"/>
      <point x="173" y="-12"/>
    </contour>
    <contour>
      <point x="528.0" y="0.0" type="move" name="bottomright"/>
    </contour>
    <contour>
      <point x="298.0" y="558.0" type="move" name="top"/>
    </contour>
    <contour>
      <point x="528.0" y="600.0" type="move" name="topright"/>
    </contour>
  </outline>
</glyph>
<glyph name="foFa-thai" format="1">
  <advance width="714"/>
  <unicode hex="0E1D"/>
  <outline>
    <contour>
      <point x="231" y="-12" type="curve" smooth="yes"/>
      <point x="298" y="-12"/>
      <point x="345" y="29"/>
      <point x="355" y="95" type="curve"/>
      <point x="360" y="95" type="line"/>
      <point x="370" y="29"/>
      <point x="418" y="-12"/>
      <point x="485" y="-12" type="curve" smooth="yes"/>
      <point x="564" y="-12"/>
      <point x="612" y="43"/>
      <point x="612" y="134" type="curve" smooth="yes"/>
      <point x="612" y="722" type="line"/>
      <point x="532" y="722" type="line"/>
      <point x="532" y="144" type="line" smooth="yes"/>
      <point x="532" y="81"/>
      <point x="506" y="48"/>
      <point x="464" y="48" type="curve" smooth="yes"/>
      <point x="422" y="48"/>
      <point x="397" y="83"/>
      <point x="397" y="144" type="curve" smooth="yes"/>
      <point x="397" y="265" type="line"/>
      <point x="317" y="265" type="line"/>
      <point x="317" y="144" type="line" smooth="yes"/>
      <point x="317" y="83"/>
      <point x="292" y="48"/>
      <point x="250" y="48" type="curve" smooth="yes"/>
      <point x="208" y="48"/>
      <point x="182" y="81"/>
      <point x="182" y="144" type="curve" smooth="yes"/>
      <point x="182" y="366" type="line"/>
      <point x="190" y="364"/>
      <point x="199" y="364"/>
      <point x="208" y="364" type="curve" smooth="yes"/>
      <point x="271" y="364"/>
      <point x="314" y="402"/>
      <point x="314" y="461" type="curve" smooth="yes"/>
      <point x="314" y="520"/>
      <point x="271" y="558"/>
      <point x="208" y="558" type="curve" smooth="yes"/>
      <point x="145" y="558"/>
      <point x="102" y="520"/>
      <point x="102" y="461" type="curve" smooth="yes"/>
      <point x="102" y="134" type="line" smooth="yes"/>
      <point x="102" y="44"/>
      <point x="151" y="-12"/>
    </contour>
    <contour>
      <point x="211" y="408" type="curve" smooth="yes"/>
      <point x="181" y="408"/>
      <point x="162" y="429"/>
      <point x="162" y="461" type="curve" smooth="yes" name="hr01"/>
      <point x="162" y="493"/>
      <point x="181" y="514"/>
      <point x="211" y="514" type="curve" smooth="yes"/>
      <point x="241" y="514"/>
      <point x="260" y="493"/>
      <point x="260" y="461" type="curve" smooth="yes"/>
      <point x="260" y="429"/>
      <point x="241" y="408"/>
    </contour>
    <contour>
      <point x="612.0" y="0.0" type="move" name="bottomright"/>
    </contour>
    <contour>
      <point x="332.0" y="558.0" type="move" name="top"/>
    </contour>
    <contour>
      <point x="532.0" y="600.0" type="move" name="topright"/>
    </contour>
  </outline>
</glyph>
<glyph name="woWaen-thai" format="1">
  <advance width="504"/>
  <unicode hex="0E27"/>
  <outline>
    <contour>
      <point x="298" y="-12" type="curve" smooth="yes"/>
      <point x="361" y="-12"/>
      <point x="404" y="26"/>
      <point x="404" y="85" type="curve" smooth="yes"/>
      <point x="404" y="380" type="line" smooth="yes"/>
      <point x="404" y="491"/>
      <point x="335" y="558"/>
      <point x="211" y="558" type="curve" smooth="yes"/>
      <point x="107" y="558"/>
      <point x="44" y="514"/>
      <point x="13" y="456" type="curve"/>
      <point x="62" y="413" type="line"/>
      <point x="90" y="464"/>
      <point x="133" y="498"/>
      <point x="201" y="498" type="curve" smooth="yes"/>
      <point x="282" y="498"/>
      <point x="324" y="454"/>
      <point x="324" y="374" type="curve" smooth="yes" name="hr01"/>
      <point x="324" y="180" type="line"/>
      <point x="315" y="181"/>
      <point x="307" y="182"/>
      <point x="298" y="182" type="curve" smooth="yes"/>
      <point x="235" y="182"/>
      <point x="192" y="144"/>
      <point x="192" y="85" type="curve" smooth="yes"/>
      <point x="192" y="26"/>
      <point x="235" y="-12"/>
    </contour>
    <contour>
      <point x="295" y="32" type="curve" smooth="yes"/>
      <point x="265" y="32"/>
      <point x="246" y="53"/>
      <point x="246" y="85" type="curve" smooth="yes"/>
      <point x="246" y="117"/>
      <point x="265" y="138"/>
      <point x="295" y="138" type="curve" smooth="yes"/>
      <point x="325" y="138"/>
      <point x="344" y="117"/>
      <point x="344" y="85" type="curve" smooth="yes" name="hr02"/>
      <point x="344" y="53"/>
      <point x="325" y="32"/>
    </contour>
    <contour>
      <point x="404.0" y="0.0" type="move" name="bottomright"/>
    </contour>
    <contour>
      <point x="229.0" y="558.0" type="move" name="top"/>
    </contour>
    <contour>
      <point x="404.0" y="600.0" type="move" name="topright"/>
    </contour>
  </outline>
</glyph>
<glyph name="soRusi-thai" format="1">
  <advance width="710"/>
  <unicode hex="0E29"/>
  <outline>
    <contour>
      <point x="75" y="60" type="line"/>
      <point x="75" y="0" type="line"/>
      <point x="409" y="0" type="line" smooth="yes"/>
      <point x="524" y="0"/>
      <point x="592" y="61"/>
      <point x="592" y="166" type="curve" smooth="yes"/>
      <point x="592" y="230" type="line"/>
      <point x="644" y="230" type="line"/>
      <point x="644" y="283" type="line"/>
      <point x="592" y="283" type="line"/>
      <point x="592" y="546" type="line"/>
      <point x="512" y="546" type="line"/>
      <point x="512" y="283" type="line"/>
      <point x="487" y="283" type="line" smooth="yes"/>
      <point x="473" y="283"/>
      <point x="460" y="279"/>
      <point x="449" y="273" type="curve"/>
      <point x="458" y="283"/>
      <point x="463" y="297"/>
      <point x="463" y="313" type="curve" smooth="yes"/>
      <point x="463" y="363"/>
      <point x="429" y="396"/>
      <point x="377" y="396" type="curve" smooth="yes"/>
      <point x="325" y="396"/>
      <point x="291" y="363"/>
      <point x="291" y="313" type="curve" smooth="yes"/>
      <point x="291" y="260"/>
      <point x="325" y="230"/>
      <point x="391" y="230" type="curve" smooth="yes"/>
      <point x="512" y="230" type="line"/>
      <point x="512" y="166" type="line" smooth="yes"/>
      <point x="512" y="99"/>
      <point x="471" y="60"/>
      <point x="401" y="60" type="curve" smooth="yes"/>
      <point x="242" y="60" type="line"/>
      <point x="242" y="461" type="line" smooth="yes"/>
      <point x="242" y="520"/>
      <point x="199" y="558"/>
      <point x="136" y="558" type="curve" smooth="yes" name="hr01"/>
      <point x="73" y="558"/>
      <point x="30" y="520"/>
      <point x="30" y="461" type="curve" smooth="yes"/>
      <point x="30" y="402"/>
      <point x="73" y="364"/>
      <point x="136" y="364" type="curve" smooth="yes"/>
      <point x="145" y="364"/>
      <point x="153" y="364"/>
      <point x="162" y="366" type="curve"/>
      <point x="162" y="60" type="line"/>
    </contour>
    <contour>
      <point x="133" y="408" type="curve" smooth="yes"/>
      <point x="103" y="408"/>
      <point x="84" y="429"/>
      <point x="84" y="461" type="curve" smooth="yes"/>
      <point x="84" y="493"/>
      <point x="103" y="514"/>
      <point x="133" y="514" type="curve" smooth="yes"/>
      <point x="163" y="514"/>
      <point x="182" y="493"/>
      <point x="182" y="461" type="curve" smooth="yes" name="hr02"/>
      <point x="182" y="429"/>
      <point x="163" y="408"/>
    </contour>
    <contour>
      <point x="377" y="270" type="curve" smooth="yes"/>
      <point x="352" y="270"/>
      <point x="336" y="287"/>
      <point x="336" y="313" type="curve" smooth="yes"/>
      <point x="336" y="339"/>
      <point x="352" y="356"/>
      <point x="377" y="356" type="curve" smooth="yes" name="hr03"/>
      <point x="402" y="356"/>
      <point x="418" y="339"/>
      <point x="418" y="313" type="curve" smooth="yes"/>
      <point x="418" y="287"/>
      <point x="402" y="270"/>
    </contour>
    <contour>
      <point x="592.0" y="0.0" type="move" name="bottomright"/>
    </contour>
    <contour>
      <point x="377.0" y="558.0" type="move" name="top"/>
    </contour>
    <contour>
      <point x="592.0" y="600.0" type="move" name="topright"/>
    </contour>
  </outline>
</glyph>
<glyph name="soSua-thai" format="1">
  <advance width="621"/>
  <unicode hex="0E2A"/>
  <outline>
    <contour>
      <point x="441" y="0" type="line"/>
      <point x="521" y="0" type="line"/>
      <point x="521" y="354" type="line" smooth="yes"/>
      <point x="521" y="407"/>
      <point x="507" y="450"/>
      <point x="480" y="484" type="curve"/>
      <point x="508" y="495"/>
      <point x="524" y="519"/>
      <point x="524" y="553" type="curve" smooth="yes" name="hr01"/>
      <point x="524" y="621" type="line"/>
      <point x="443" y="621" type="line"/>
      <point x="443" y="519" type="line"/>
      <point x="405" y="544"/>
      <point x="356" y="558"/>
      <point x="295" y="558" type="curve" smooth="yes"/>
      <point x="170" y="558"/>
      <point x="95" y="504"/>
      <point x="58" y="434" type="curve"/>
      <point x="110" y="389" type="line"/>
      <point x="146" y="455"/>
      <point x="205" y="498"/>
      <point x="291" y="498" type="curve" smooth="yes"/>
      <point x="390" y="498"/>
      <point x="441" y="449"/>
      <point x="441" y="351" type="curve" smooth="yes" name="hr02"/>
      <point x="441" y="319" type="line"/>
      <point x="270" y="319" type="line" smooth="yes"/>
      <point x="151" y="319"/>
      <point x="81" y="254"/>
      <point x="81" y="148" type="curve" smooth="yes"/>
      <point x="81" y="37"/>
      <point x="136" y="-12"/>
      <point x="219" y="-12" type="curve" smooth="yes"/>
      <point x="278" y="-12"/>
      <point x="321" y="26"/>
      <point x="321" y="85" type="curve" smooth="yes"/>
      <point x="321" y="144"/>
      <point x="278" y="182"/>
      <point x="219" y="182" type="curve" smooth="yes"/>
      <point x="193" y="182"/>
      <point x="168" y="173"/>
      <point x="149" y="158" type="curve"/>
      <point x="154" y="222"/>
      <point x="201" y="259"/>
      <point x="277" y="259" type="curve" smooth="yes" name="hr03"/>
      <point x="441" y="259" type="line"/>
    </contour>
    <contour>
      <point x="218" y="32" type="curve" smooth="yes" name="hr04"/>
      <point x="188" y="32"/>
      <point x="169" y="53"/>
      <point x="169" y="85" type="curve" smooth="yes"/>
      <point x="169" y="117"/>
      <point x="188" y="138"/>
      <point x="218" y="138" type="curve" smooth="yes"/>
      <point x="248" y="138"/>
      <point x="267" y="117"/>
      <point x="267" y="85" type="curve" smooth="yes"/>
      <point x="267" y="53"/>
      <point x="248" y="32"/>
    </contour>
    <contour>
      <point x="521.0" y="0.0" type="move" name="bottomright"/>
    </contour>
    <contour>
      <point x="293.0" y="558.0" type="move" name="top"/>
    </contour>
    <contour>
      <point x="521.0" y="600.0" type="move" name="topright"/>
    </contour>
  </outline>
</glyph>
<glyph name="saraA-thai" format="1">
  <advance width="513"/>
  <unicode hex="0E30"/>
  <outline>
    <contour>
      <point x="239" y="304" type="curve" smooth="yes" name="hr00"/>
      <point x="368" y="304"/>
      <point x="450" y="351"/>
      <point x="450" y="489" type="curve" smooth="yes"/>
      <point x="450" y="496" type="line"/>
      <point x="370" y="496" type="line"/>
      <point x="370" y="489" type="line" smooth="yes"/>
      <point x="370" y="395"/>
      <point x="328" y="362"/>
      <point x="257" y="362" type="curve" smooth="yes"/>
      <point x="221" y="362" type="line" smooth="yes"/>
      <point x="215" y="362"/>
      <point x="206" y="361"/>
      <point x="195" y="362" type="curve"/>
      <point x="195" y="364" type="line"/>
      <point x="224" y="370"/>
      <point x="242" y="399"/>
      <point x="242" y="432" type="curve" smooth="yes"/>
      <point x="242" y="479"/>
      <point x="204" y="514"/>
      <point x="150" y="514" type="curve" smooth="yes"/>
      <point x="96" y="514"/>
      <point x="58" y="479"/>
      <point x="58" y="421" type="curve" smooth="yes"/>
      <point x="58" y="343"/>
      <point x="120" y="304"/>
    </contour>
    <contour>
      <point x="239" y="19" type="curve" smooth="yes"/>
      <point x="368" y="19"/>
      <point x="450" y="66"/>
      <point x="450" y="204" type="curve" smooth="yes"/>
      <point x="450" y="211" type="line"/>
      <point x="370" y="211" type="line"/>
      <point x="370" y="204" type="line" smooth="yes"/>
      <point x="370" y="110"/>
      <point x="328" y="77"/>
      <point x="257" y="77" type="curve" smooth="yes"/>
      <point x="221" y="77" type="line" smooth="yes"/>
      <point x="215" y="77"/>
      <point x="206" y="76"/>
      <point x="195" y="77" type="curve"/>
      <point x="195" y="79" type="line"/>
      <point x="224" y="85"/>
      <point x="242" y="114"/>
      <point x="242" y="147" type="curve" smooth="yes"/>
      <point x="242" y="194"/>
      <point x="204" y="229"/>
      <point x="150" y="229" type="curve" smooth="yes"/>
      <point x="96" y="229"/>
      <point x="58" y="194"/>
      <point x="58" y="136" type="curve" smooth="yes"/>
      <point x="58" y="58"/>
      <point x="120" y="19"/>
    </contour>
    <contour>
      <point x="150" y="376" type="curve" smooth="yes"/>
      <point x="121" y="376"/>
      <point x="106" y="394"/>
      <point x="106" y="423" type="curve" smooth="yes"/>
      <point x="106" y="452"/>
      <point x="121" y="470"/>
      <point x="150" y="470" type="curve" smooth="yes"/>
      <point x="179" y="470"/>
      <point x="194" y="452"/>
      <point x="194" y="423" type="curve" smooth="yes"/>
      <point x="194" y="394"/>
      <point x="179" y="376"/>
    </contour>
    <contour>
      <point x="150" y="91" type="curve" smooth="yes"/>
      <point x="121" y="91"/>
      <point x="106" y="109"/>
      <point x="106" y="138" type="curve" smooth="yes"/>
      <point x="106" y="167"/>
      <point x="121" y="185"/>
      <point x="150" y="185" type="curve" smooth="yes"/>
      <point x="179" y="185"/>
      <point x="194" y="167"/>
      <point x="194" y="138" type="curve" smooth="yes"/>
      <point x="194" y="109"/>
      <point x="179" y="91"/>
    </contour>
  </outline>
</glyph>
<glyph name="maiHanaKat-thai" format="1">
  <advance width="0"/>
  <unicode hex="0E31"/>
  <outline>
    <contour>
      <point x="-82" y="645" type="curve" smooth="yes" name="hr00"/>
      <point x="54" y="645"/>
      <point x="141" y="692"/>
      <point x="141" y="830" type="curve" smooth="yes"/>
      <point x="141" y="837" type="line"/>
      <point x="61" y="837" type="line"/>
      <point x="61" y="830" type="line" smooth="yes"/>
      <point x="61" y="736"/>
      <point x="14" y="703"/>
      <point x="-61" y="703" type="curve" smooth="yes"/>
      <point x="-103" y="703" type="line" smooth="yes"/>
      <point x="-108" y="703"/>
      <point x="-118" y="702"/>
      <point x="-129" y="703" type="curve"/>
      <point x="-129" y="705" type="line"/>
      <point x="-100" y="711"/>
      <point x="-82" y="740"/>
      <point x="-82" y="773" type="curve" smooth="yes"/>
      <point x="-82" y="820"/>
      <point x="-120" y="855"/>
      <point x="-174" y="855" type="curve" smooth="yes"/>
      <point x="-228" y="855"/>
      <point x="-266" y="820"/>
      <point x="-266" y="762" type="curve" smooth="yes"/>
      <point x="-266" y="684"/>
      <point x="-205" y="645"/>
    </contour>
    <contour>
      <point x="-174" y="717" type="curve" smooth="yes"/>
      <point x="-203" y="717"/>
      <point x="-218" y="735"/>
      <point x="-218" y="764" type="curve" smooth="yes"/>
      <point x="-218" y="793"/>
      <point x="-203" y="811"/>
      <point x="-174" y="811" type="curve" smooth="yes"/>
      <point x="-145" y="811"/>
      <point x="-130" y="793"/>
      <point x="-130" y="764" type="curve" smooth="yes"/>
      <point x="-130" y="735"/>
      <point x="-145" y="717"/>
    </contour>
    <contour>
      <point x="0.0" y="600.0" type="move" name="_topright"/>
    </contour>
    <contour>
      <point x="0.0" y="840.0" type="move" name="topright"/>
    </contour>
  </outline>
</glyph>
<glyph name="saraI-thai" format="1">
  <advance width="0"/>
  <unicode hex="0E34"/>
  <outline>
    <contour>
      <point x="0" y="653" type="line" name="hr00"/>
      <point x="0" y="676" type="line" smooth="yes"/>
      <point x="0" y="778"/>
      <point x="-91" y="845"/>
      <point x="-226" y="845" type="curve" smooth="yes"/>
      <point x="-361" y="845"/>
      <point x="-452" y="778"/>
      <point x="-452" y="676" type="curve" smooth="yes"/>
      <point x="-452" y="653" type="line"/>
    </contour>
    <contour>
      <point x="-226" y="781" type="curve" smooth="yes"/>
      <point x="-143" y="781"/>
      <point x="-79" y="749"/>
      <point x="-68" y="705" type="curve"/>
      <point x="-383" y="705" type="line"/>
      <point x="-372" y="749"/>
      <point x="-308" y="781"/>
    </contour>
    <contour>
      <point x="0.0" y="600.0" type="move" name="_topright"/>
    </contour>
    <contour>
      <point x="0.0" y="840.0" type="move" name="topright"/>
    </contour>
  </outline>
</glyph>
<glyph name="saraIi-thai" format="1">
  <advance width="0"/>
  <unicode hex="0E35"/>
  <outline>
    <contour>
      <point x="-452" y="653" type="line" name="hr00"/>
      <point x="0" y="653" type="line"/>
      <point x="0" y="892" type="line"/>
      <point x="-78" y="892" type="line"/>
      <point x="-78" y="769" type="line"/>
      <point x="-81" y="769" type="line"/>
      <point x="-107" y="816"/>
      <point x="-163" y="845"/>
      <point x="-241" y="845" type="curve" smooth="yes"/>
      <point x="-368" y="845"/>
      <point x="-452" y="778"/>
      <point x="-452" y="676" type="curve" smooth="yes"/>
    </contour>
    <contour>
      <point x="-226" y="781" type="curve" smooth="yes"/>
      <point x="-142" y="781"/>
      <point x="-79" y="749"/>
      <point x="-68" y="705" type="curve"/>
      <point x="-383" y="705" type="line"/>
      <point x="-372" y="749"/>
      <point x="-309" y="781"/>
    </contour>
    <contour>
      <point x="0.0" y="600.0" type="move" name="_topright"/>
    </contour>
    <contour>
      <point x="0.0" y="880.0" type="move" name="topright"/>
    </contour>
  </outline>
</glyph>
<glyph name="saraUe-thai" format="1">
  <advance width="0"/>
  <unicode hex="0E36"/>
  <outline>
    <contour>
      <point x="-21" y="675" type="curve" smooth="yes"/>
      <point x="38" y="675"/>
      <point x="79" y="711"/>
      <point x="79" y="767" type="curve" smooth="yes"/>
      <point x="79" y="823"/>
      <point x="38" y="859"/>
      <point x="-21" y="859" type="curve" smooth="yes"/>
      <point x="-66" y="859"/>
      <point x="-100" y="838"/>
      <point x="-114" y="803" type="curve"/>
      <point x="-144" y="830"/>
      <point x="-189" y="845"/>
      <point x="-246" y="845" type="curve" smooth="yes" name="hr01"/>
      <point x="-376" y="845"/>
      <point x="-457" y="778"/>
      <point x="-457" y="676" type="curve" smooth="yes"/>
      <point x="-457" y="653" type="line"/>
      <point x="-45" y="653" type="line"/>
      <point x="-45" y="677" type="line"/>
      <point x="-37" y="675"/>
      <point x="-29" y="675"/>
    </contour>
    <contour>
      <point x="-231" y="781" type="curve" smooth="yes"/>
      <point x="-185" y="781"/>
      <point x="-148" y="773"/>
      <point x="-120" y="758" type="curve"/>
      <point x="-119" y="737"/>
      <point x="-111" y="719"/>
      <point x="-98" y="705" type="curve" name="hr03"/>
      <point x="-388" y="705" type="line"/>
      <point x="-378" y="749"/>
      <point x="-319" y="781"/>
    </contour>
    <contour>
      <point x="-21" y="716" type="curve" smooth="yes" name="hr04"/>
      <point x="-50" y="716"/>
      <point x="-68" y="736"/>
      <point x="-68" y="767" type="curve" smooth="yes"/>
      <point x="-68" y="798"/>
      <point x="-50" y="818"/>
      <point x="-21" y="818" type="curve" smooth="yes"/>
      <point x="8" y="818"/>
      <point x="26" y="798"/>
      <point x="26" y="767" type="curve" smooth="yes"/>
      <point x="26" y="736"/>
      <point x="8" y="716"/>
    </contour>
    <contour>
      <point x="0.0" y="600.0" type="move" name="_topright"/>
    </contour>
    <contour>
      <point x="0.0" y="880.0" type="move" name="topright"/>
    </contour>
  </outline>
</glyph>
<glyph name="saraU-thai" format="1">
  <advance width="0"/>
  <unicode hex="0E38"/>
  <outline>
    <contour>
      <point x="-80" y="-357" type="line"/>
      <point x="0" y="-357" type="line"/>
      <point x="0" y="-186" type="line" smooth="yes"/>
      <point x="0" y="-137"/>
      <point x="-34" y="-105"/>
      <point x="-88" y="-105" type="curve" smooth="yes"/>
      <point x="-142" y="-105"/>
      <point x="-180" y="-137"/>
      <point x="-180" y="-186" type="curve" smooth="yes"/>
      <point x="-180" y="-236"/>
      <point x="-144" y="-267"/>
      <point x="-90" y="-267" type="curve" smooth="yes"/>
      <point x="-80" y="-267" type="line"/>
    </contour>
    <contour>
      <point x="-92" y="-223" type="curve" smooth="yes"/>
      <point x="-115" y="-223"/>
      <point x="-128" y="-209"/>
      <point x="-128" y="-186" type="curve" smooth="yes"/>
      <point x="-128" y="-163"/>
      <point x="-115" y="-149"/>
      <point x="-92" y="-149" type="curve" smooth="yes"/>
      <point x="-69" y="-149"/>
      <point x="-57" y="-163"/>
      <point x="-57" y="-186" type="curve" smooth="yes" name="hr01"/>
      <point x="-57" y="-209"/>
      <point x="-69" y="-223"/>
    </contour>
    <contour>
      <point x="0.0" y="0.0" type="move" name="_bottomright"/>
    </contour>
    <contour>
      <point x="6.0" y="-280.0" type="move" name="bottomright"/>
    </contour>
  </outline>
</glyph>
<glyph name="saraUu-thai" format="1">
  <advance width="0"/>
  <unicode hex="0E39"/>
  <outline>
    <contour>
      <point x="-283" y="-267" type="curve"/>
      <point x="-273" y="-267" type="line"/>
      <point x="-273" y="-303" type="line" smooth="yes"/>
      <point x="-273" y="-336"/>
      <point x="-252" y="-357"/>
      <point x="-215" y="-357" type="curve" smooth="yes"/>
      <point x="-100" y="-357" type="line" smooth="yes"/>
      <point x="-36" y="-357"/>
      <point x="0" y="-313"/>
      <point x="0" y="-245" type="curve" smooth="yes"/>
      <point x="0" y="-113" type="line"/>
      <point x="-78" y="-113" type="line"/>
      <point x="-78" y="-247" type="line" smooth="yes"/>
      <point x="-78" y="-276"/>
      <point x="-93" y="-290"/>
      <point x="-127" y="-290" type="curve" smooth="yes"/>
      <point x="-193" y="-290" type="line"/>
      <point x="-193" y="-186" type="line" smooth="yes"/>
      <point x="-193" y="-137"/>
      <point x="-227" y="-105"/>
      <point x="-281" y="-105" type="curve" smooth="yes"/>
      <point x="-335" y="-105"/>
      <point x="-373" y="-137"/>
      <point x="-373" y="-186" type="curve" smooth="yes"/>
      <point x="-373" y="-236"/>
      <point x="-337" y="-267"/>
    </contour>
    <contour>
      <point x="-285" y="-223" type="curve" smooth="yes"/>
      <point x="-308" y="-223"/>
      <point x="-321" y="-209"/>
      <point x="-321" y="-186" type="curve" smooth="yes"/>
      <point x="-321" y="-163"/>
      <point x="-308" y="-149"/>
      <point x="-285" y="-149" type="curve" smooth="yes"/>
      <point x="-262" y="-149"/>
      <point x="-250" y="-163"/>
      <point x="-250" y="-186" type="curve" smooth="yes" name="hr01"/>
      <point x="-250" y="-209"/>
      <point x="-262" y="-223"/>
    </contour>
    <contour>
      <point x="0.0" y="0.0" type="move" name="_bottomright"/>
    </contour>
    <contour>
      <point x="6.0" y="-280.0" type="move" name="bottomright"/>
    </contour>
  </outline>
</glyph>
<glyph name="phinthu-thai" format="1">
  <advance width="0"/>
  <unicode hex="0E3A"/>
  <outline>
    <contour>
      <point x="-42" y="-207" type="curve" name="hr00"/>
      <point x="-6" y="-207"/>
      <point x="10" y="-188"/>
      <point x="10" y="-162" type="curve"/>
      <point x="10" y="-149" type="line" smooth="yes"/>
      <point x="10" y="-122"/>
      <point x="-6" y="-103"/>
      <point x="-42" y="-103" type="curve"/>
      <point x="-78" y="-103"/>
      <point x="-94" y="-122"/>
      <point x="-94" y="-149" type="curve"/>
      <point x="-94" y="-162" type="line"/>
      <point x="-94" y="-188"/>
      <point x="-78" y="-207"/>
    </contour>
    <contour>
      <point x="0.0" y="0.0" type="move" name="_bottomright"/>
    </contour>
    <contour>
      <point x="0.0" y="-208.0" type="move" name="bottomright"/>
    </contour>
  </outline>
</glyph>
<glyph name="lakkhangyao-thai" format="1">
  <advance width="502"/>
  <unicode hex="0E45"/>
  <outline>
    <contour>
      <point x="402" y="-180" type="line" name="hr00"/>
      <point x="402" y="382" type="line" smooth="yes"/>
      <point x="402" y="493"/>
      <point x="334" y="558"/>
      <point x="210" y="558" type="curve" smooth="yes"/>
      <point x="106" y="558"/>
      <point x="44" y="514"/>
      <point x="13" y="456" type="curve"/>
      <point x="62" y="413" type="line"/>
      <point x="90" y="464"/>
      <point x="132" y="498"/>
      <point x="200" y="498" type="curve" smooth="yes"/>
      <point x="281" y="498"/>
      <point x="322" y="455"/>
      <point x="322" y="375" type="curve" smooth="yes"/>
      <point x="322" y="-180" type="line"/>
    </contour>
    <contour>
      <point x="402.0" y="600.0" type="move" name="topright"/>
    </contour>
  </outline>
</glyph>
<glyph name="maiyamok-thai" format="1">
  <advance width="632"/>
  <unicode hex="0E46"/>
  <outline>
    <contour>
      <point x="156" y="219" type="curve" smooth="yes"/>
      <point x="211" y="219"/>
      <point x="247" y="254"/>
      <point x="247" y="306" type="curve" smooth="yes"/>
      <point x="247" y="358"/>
      <point x="211" y="393"/>
      <point x="156" y="393" type="curve" smooth="yes"/>
      <point x="147" y="393"/>
      <point x="139" y="392"/>
      <point x="132" y="390" type="curve"/>
      <point x="132" y="427" type="line" smooth="yes"/>
      <point x="132" y="475"/>
      <point x="158" y="498"/>
      <point x="197" y="498" type="curve" smooth="yes"/>
      <point x="242" y="498"/>
      <point x="260" y="466"/>
      <point x="265" y="409" type="curve"/>
      <point x="317" y="409" type="line"/>
      <point x="322" y="466"/>
      <point x="340" y="498"/>
      <point x="385" y="498" type="curve" smooth="yes"/>
      <point x="424" y="498"/>
      <point x="450" y="475"/>
      <point x="450" y="427" type="curve" smooth="yes"/>
      <point x="450" y="-180" type="line"/>
      <point x="530" y="-180" type="line"/>
      <point x="530" y="438" type="line" smooth="yes"/>
      <point x="530" y="509"/>
      <point x="480" y="558"/>
      <point x="402" y="558" type="curve" smooth="yes"/>
      <point x="342" y="558"/>
      <point x="305" y="529"/>
      <point x="294" y="481" type="curve"/>
      <point x="288" y="481" type="line"/>
      <point x="277" y="529"/>
      <point x="240" y="558"/>
      <point x="180" y="558" type="curve" smooth="yes"/>
      <point x="102" y="558"/>
      <point x="52" y="509"/>
      <point x="52" y="438" type="curve" smooth="yes"/>
      <point x="52" y="347" type="line" smooth="yes"/>
      <point x="52" y="267"/>
      <point x="91" y="219"/>
    </contour>
    <contour>
      <point x="156" y="259" type="curve" smooth="yes"/>
      <point x="130" y="259"/>
      <point x="113" y="278"/>
      <point x="113" y="306" type="curve" smooth="yes" name="hr01"/>
      <point x="113" y="334"/>
      <point x="130" y="353"/>
      <point x="156" y="353" type="curve" smooth="yes"/>
      <point x="182" y="353"/>
      <point x="199" y="334"/>
      <point x="199" y="306" type="curve" smooth="yes"/>
      <point x="199" y="278"/>
      <point x="182" y="259"/>
    </contour>
  </outline>
</glyph>
<glyph name="maitaikhu-thai" format="1">
  <advance width="0"/>
  <unicode hex="0E47"/>
  <outline>
    <contour>
      <point x="-284" y="645" type="curve" smooth="yes"/>
      <point x="-235" y="645"/>
      <point x="-212" y="673"/>
      <point x="-204" y="713" type="curve"/>
      <point x="-200" y="713" type="line"/>
      <point x="-182" y="667"/>
      <point x="-139" y="645"/>
      <point x="-86" y="645" type="curve" smooth="yes"/>
      <point x="-24" y="645"/>
      <point x="11" y="679"/>
      <point x="11" y="728" type="curve" smooth="yes"/>
      <point x="11" y="763"/>
      <point x="-14" y="790"/>
      <point x="-55" y="790" type="curve" smooth="yes"/>
      <point x="-92" y="790"/>
      <point x="-116" y="770"/>
      <point x="-116" y="738" type="curve" smooth="yes"/>
      <point x="-116" y="721"/>
      <point x="-109" y="708"/>
      <point x="-97" y="699" type="curve"/>
      <point x="-98" y="698" type="line"/>
      <point x="-134" y="702"/>
      <point x="-155" y="725"/>
      <point x="-162" y="764" type="curve"/>
      <point x="-217" y="764" type="line"/>
      <point x="-218" y="724"/>
      <point x="-234" y="703"/>
      <point x="-261" y="703" type="curve" smooth="yes" name="hr01"/>
      <point x="-288" y="703"/>
      <point x="-305" y="720"/>
      <point x="-305" y="751" type="curve" smooth="yes"/>
      <point x="-305" y="789"/>
      <point x="-280" y="809"/>
      <point x="-237" y="809" type="curve" smooth="yes"/>
      <point x="-71" y="809" type="line" smooth="yes"/>
      <point x="-29" y="809"/>
      <point x="-14" y="827"/>
      <point x="-6" y="860" type="curve" smooth="yes"/>
      <point x="7" y="912" type="line"/>
      <point x="-68" y="925" type="line"/>
      <point x="-83" y="863" type="line"/>
      <point x="-248" y="863" type="line" smooth="yes"/>
      <point x="-325" y="863"/>
      <point x="-372" y="817"/>
      <point x="-372" y="746" type="curve" smooth="yes"/>
      <point x="-372" y="683"/>
      <point x="-334" y="645"/>
    </contour>
    <contour>
      <point x="-54" y="699" type="curve" smooth="yes"/>
      <point x="-72" y="699"/>
      <point x="-85" y="712"/>
      <point x="-85" y="730" type="curve" smooth="yes"/>
      <point x="-85" y="748"/>
      <point x="-72" y="761"/>
      <point x="-54" y="761" type="curve" smooth="yes"/>
      <point x="-36" y="761"/>
      <point x="-23" y="748"/>
      <point x="-23" y="730" type="curve" smooth="yes"/>
      <point x="-23" y="712"/>
      <point x="-36" y="699"/>
    </contour>
    <contour>
      <point x="0.0" y="600.0" type="move" name="_topright"/>
    </contour>
    <contour>
      <point x="-147.0" y="840.0" type="move" name="topright"/>
    </contour>
  </outline>
</glyph>
<glyph name="maiEk-thai" format="1">
  <advance width="0"/>
  <unicode hex="0E48"/>
  <outline>
    <contour>
      <point x="-79" y="836" type="line" name="hr00"/>
      <point x="-68" y="653" type="line"/>
      <point x="-13" y="653" type="line"/>
      <point x="-2" y="836" type="line"/>
    </contour>
    <contour>
      <point x="0.0" y="600.0" type="move" name="_topright"/>
    </contour>
    <contour>
      <point x="-1.0" y="840.0" type="move" name="topright"/>
    </contour>
  </outline>
</glyph>
<glyph name="maiTho-thai" format="1">
  <advance width="0"/>
  <unicode hex="0E49"/>
  <outline>
    <contour>
      <point x="-204" y="653" type="line" name="hr00"/>
      <point x="-6" y="653" type="line" smooth="yes"/>
      <point x="43" y="653"/>
      <point x="60" y="675"/>
      <point x="78" y="718" type="curve" smooth="yes"/>
      <point x="123" y="824" type="line"/>
      <point x="55" y="824" type="line"/>
      <point x="10" y="700" type="line"/>
      <point x="-110" y="700" type="line"/>
      <point x="-110" y="707" type="line"/>
      <point x="-62" y="731"/>
      <point x="-50" y="756"/>
      <point x="-50" y="787" type="curve" smooth="yes"/>
      <point x="-50" y="834"/>
      <point x="-83" y="864"/>
      <point x="-133" y="864" type="curve" smooth="yes"/>
      <point x="-183" y="864"/>
      <point x="-216" y="834"/>
      <point x="-216" y="787" type="curve" smooth="yes"/>
      <point x="-216" y="747"/>
      <point x="-191" y="720"/>
      <point x="-150" y="715" type="curve"/>
      <point x="-150" y="713" type="line"/>
      <point x="-204" y="682" type="line"/>
    </contour>
    <contour>
      <point x="-133" y="745" type="curve" smooth="yes"/>
      <point x="-157" y="745"/>
      <point x="-173" y="760"/>
      <point x="-173" y="786" type="curve" smooth="yes"/>
      <point x="-173" y="812"/>
      <point x="-157" y="827"/>
      <point x="-133" y="827" type="curve" smooth="yes"/>
      <point x="-109" y="827"/>
      <point x="-93" y="812"/>
      <point x="-93" y="786" type="curve" smooth="yes"/>
      <point x="-93" y="760"/>
      <point x="-109" y="745"/>
    </contour>
    <contour>
      <point x="0.0" y="600.0" type="move" name="_topright"/>
    </contour>
    <contour>
      <point x="0.0" y="840.0" type="move" name="topright"/>
    </contour>
  </outline>
</glyph>
<glyph name="maiTri-thai" format="1">
  <advance width="0"/>
  <unicode hex="0E4A"/>
  <outline>
    <contour>
      <point x="-282" y="645" type="curve" smooth="yes"/>
      <point x="-248" y="645"/>
      <point x="-221" y="668"/>
      <point x="-221" y="703" type="curve" smooth="yes"/>
      <point x="-221" y="738"/>
      <point x="-248" y="761"/>
      <point x="-282" y="761" type="curve" smooth="yes"/>
      <point x="-286" y="761"/>
      <point x="-290" y="760"/>
      <point x="-294" y="760" type="curve"/>
      <point x="-292" y="783"/>
      <point x="-276" y="794"/>
      <point x="-258" y="794" type="curve" smooth="yes"/>
      <point x="-227" y="794"/>
      <point x="-214" y="776"/>
      <point x="-209" y="737" type="curve"/>
      <point x="-171" y="737" type="line"/>
      <point x="-167" y="776"/>
      <point x="-152" y="794"/>
      <point x="-122" y="794" type="curve" smooth="yes"/>
      <point x="-98" y="794"/>
      <point x="-80" y="776"/>
      <point x="-86" y="740" type="curve" smooth="yes"/>
      <point x="-100" y="653" type="line" name="hr01"/>
      <point x="24" y="653" type="line" smooth="yes"/>
      <point x="71" y="653"/>
      <point x="91" y="670"/>
      <point x="101" y="721" type="curve" smooth="yes"/>
      <point x="121" y="824" type="line"/>
      <point x="55" y="824" type="line"/>
      <point x="34" y="700" type="line"/>
      <point x="-49" y="700" type="line"/>
      <point x="-49" y="702" type="line"/>
      <point x="-34" y="718"/>
      <point x="-25" y="745"/>
      <point x="-25" y="771" type="curve" smooth="yes"/>
      <point x="-25" y="813"/>
      <point x="-54" y="844"/>
      <point x="-104" y="844" type="curve" smooth="yes"/>
      <point x="-146" y="844"/>
      <point x="-177" y="823"/>
      <point x="-186" y="782" type="curve"/>
      <point x="-192" y="782" type="line"/>
      <point x="-204" y="823"/>
      <point x="-229" y="844"/>
      <point x="-271" y="844" type="curve" smooth="yes"/>
      <point x="-326" y="844"/>
      <point x="-355" y="806"/>
      <point x="-355" y="743" type="curve" smooth="yes"/>
      <point x="-355" y="682"/>
      <point x="-326" y="645"/>
    </contour>
    <contour>
      <point x="-283" y="672" type="curve" smooth="yes"/>
      <point x="-301" y="672"/>
      <point x="-314" y="685"/>
      <point x="-314" y="703" type="curve" smooth="yes"/>
      <point x="-314" y="721"/>
      <point x="-301" y="734"/>
      <point x="-283" y="734" type="curve" smooth="yes"/>
      <point x="-265" y="734"/>
      <point x="-252" y="721"/>
      <point x="-252" y="703" type="curve" smooth="yes"/>
      <point x="-252" y="685"/>
      <point x="-265" y="672"/>
    </contour>
    <contour>
      <point x="0.0" y="600.0" type="move" name="_topright"/>
    </contour>
    <contour>
      <point x="-20.0" y="800.0" type="move" name="topright"/>
    </contour>
  </outline>
</glyph>
<glyph name="maiChattawa-thai" format="1">
  <advance width="0"/>
  <unicode hex="0E4B"/>
  <outline>
    <contour>
      <point x="74" y="734" type="line" name="hr00"/>
      <point x="74" y="795" type="line"/>
      <point x="-14" y="788" type="line"/>
      <point x="-7" y="876" type="line"/>
      <point x="-73" y="876" type="line"/>
      <point x="-66" y="788" type="line"/>
      <point x="-154" y="795" type="line"/>
      <point x="-154" y="734" type="line"/>
      <point x="-66" y="741" type="line"/>
      <point x="-73" y="653" type="line"/>
      <point x="-7" y="653" type="line"/>
      <point x="-14" y="741" type="line"/>
    </contour>
    <contour>
      <point x="0.0" y="600.0" type="move" name="_topright"/>
    </contour>
  </outline>
</glyph>
<glyph name="thanthakhat-thai" format="1">
  <advance width="0"/>
  <unicode hex="0E4C"/>
  <outline>
    <contour>
      <point x="-85" y="645" type="curve" smooth="yes"/>
      <point x="-27" y="645"/>
      <point x="12" y="682"/>
      <point x="12" y="731" type="curve" smooth="yes"/>
      <point x="12" y="752"/>
      <point x="3" y="771"/>
      <point x="-20" y="784" type="curve"/>
      <point x="-19" y="787" type="line"/>
      <point x="-9" y="786"/>
      <point x="0" y="786"/>
      <point x="10" y="786" type="curve" smooth="yes" name="hr01"/>
      <point x="89" y="786" type="line" smooth="yes"/>
      <point x="131" y="786"/>
      <point x="146" y="804"/>
      <point x="154" y="837" type="curve" smooth="yes"/>
      <point x="167" y="889" type="line"/>
      <point x="92" y="902" type="line"/>
      <point x="77" y="842" type="line"/>
      <point x="-58" y="842" type="line" smooth="yes"/>
      <point x="-144" y="842"/>
      <point x="-187" y="806"/>
      <point x="-187" y="739" type="curve" smooth="yes"/>
      <point x="-187" y="682"/>
      <point x="-147" y="645"/>
    </contour>
    <contour>
      <point x="-85" y="689" type="curve" smooth="yes"/>
      <point x="-115" y="689"/>
      <point x="-132" y="708"/>
      <point x="-132" y="738" type="curve" smooth="yes"/>
      <point x="-132" y="768"/>
      <point x="-115" y="787"/>
      <point x="-85" y="787" type="curve" smooth="yes" name="hr02"/>
      <point x="-55" y="787"/>
      <point x="-38" y="768"/>
      <point x="-38" y="738" type="curve" smooth="yes"/>
      <point x="-38" y="708"/>
      <point x="-55" y="689"/>
    </contour>
    <contour>
      <point x="0.0" y="600.0" type="move" name="_topright"/>
    </contour>
  </outline>
</glyph>
<glyph name="nikhahit-thai" format="1">
  <advance width="0"/>
  <unicode hex="0E4D"/>
  <outline>
    <contour>
      <point x="-41" y="652" type="curve" smooth="yes" name="hr00"/>
      <point x="23" y="652"/>
      <point x="65" y="690"/>
      <point x="65" y="750" type="curve" smooth="yes"/>
      <point x="65" y="810"/>
      <point x="23" y="848"/>
      <point x="-41" y="848" type="curve" smooth="yes"/>
      <point x="-105" y="848"/>
      <point x="-147" y="810"/>
      <point x="-147" y="750" type="curve" smooth="yes"/>
      <point x="-147" y="690"/>
      <point x="-105" y="652"/>
    </contour>
    <contour>
      <point x="-41" y="698" type="curve" smooth="yes"/>
      <point x="-71" y="698"/>
      <point x="-88" y="717"/>
      <point x="-88" y="742" type="curve" smooth="yes"/>
      <point x="-88" y="758" type="line" smooth="yes"/>
      <point x="-88" y="783"/>
      <point x="-71" y="802"/>
      <point x="-41" y="802" type="curve" smooth="yes"/>
      <point x="-11" y="802"/>
      <point x="6" y="783"/>
      <point x="6" y="758" type="curve" smooth="yes"/>
      <point x="6" y="742" type="line" smooth="yes"/>
      <point x="6" y="717"/>
      <point x="-11" y="698"/>
    </contour>
    <contour>
      <point x="0.0" y="600.0" type="move" name="_topright"/>
    </contour>
    <contour>
      <point x="-2.0" y="840.0" type="move" name="topright"/>
    </contour>
  </outline>
</glyph>
<glyph name="yamakkan-thai" format="1">
  <advance width="0"/>
  <unicode hex="0E4E"/>
  <outline>
    <contour>
      <point x="0" y="653" type="line"/>
      <point x="0" y="703" type="line"/>
      <point x="-36" y="703" type="line" smooth="yes"/>
      <point x="-72" y="703"/>
      <point x="-84" y="715"/>
      <point x="-84" y="737" type="curve" smooth="yes"/>
      <point x="-84" y="760"/>
      <point x="-67" y="776"/>
      <point x="-30" y="776" type="curve" smooth="yes"/>
      <point x="18" y="776" type="line"/>
      <point x="18" y="826" type="line"/>
      <point x="-3" y="826" type="line" smooth="yes"/>
      <point x="-35" y="826"/>
      <point x="-54" y="837"/>
      <point x="-54" y="862" type="curve" smooth="yes" name="hr01"/>
      <point x="-54" y="881"/>
      <point x="-37" y="894"/>
      <point x="-8" y="894" type="curve" smooth="yes"/>
      <point x="10" y="894"/>
      <point x="29" y="888"/>
      <point x="40" y="881" type="curve"/>
      <point x="58" y="927" type="line"/>
      <point x="41" y="937"/>
      <point x="16" y="944"/>
      <point x="-15" y="944" type="curve" smooth="yes"/>
      <point x="-78" y="944"/>
      <point x="-114" y="913"/>
      <point x="-114" y="872" type="curve" smooth="yes"/>
      <point x="-114" y="839"/>
      <point x="-97" y="812"/>
      <point x="-56" y="800" type="curve"/>
      <point x="-56" y="797" type="line"/>
      <point x="-119" y="793"/>
      <point x="-146" y="763"/>
      <point x="-146" y="725" type="curve" smooth="yes" name="hr02"/>
      <point x="-146" y="681"/>
      <point x="-111" y="653"/>
      <point x="-49" y="653" type="curve" smooth="yes"/>
    </contour>
    <contour>
      <point x="0.0" y="600.0" type="move" name="_topright"/>
    </contour>
  </outline>
</glyph>
<glyph name="one-thai" format="1">
  <advance width="621"/>
  <unicode hex="0E51"/>
  <outline>
    <contour>
      <point x="290" y="510" type="curve" smooth="yes" name="hr00"/>
      <point x="141" y="510"/>
      <point x="42" y="425"/>
      <point x="42" y="301" type="curve" smooth="yes"/>
      <point x="42" y="178"/>
      <point x="128" y="118"/>
      <point x="223" y="118" type="curve" smooth="yes"/>
      <point x="300" y="118"/>
      <point x="339" y="158"/>
      <point x="339" y="209" type="curve" smooth="yes"/>
      <point x="339" y="263"/>
      <point x="301" y="298"/>
      <point x="245" y="298" type="curve" smooth="yes"/>
      <point x="188" y="298"/>
      <point x="151" y="265"/>
      <point x="151" y="215" type="curve" smooth="yes"/>
      <point x="151" y="205" type="line"/>
      <point x="150" y="204" type="line"/>
      <point x="136" y="227"/>
      <point x="128" y="257"/>
      <point x="128" y="292" type="curve" smooth="yes"/>
      <point x="128" y="312" type="line" smooth="yes"/>
      <point x="128" y="382"/>
      <point x="186" y="450"/>
      <point x="290" y="450" type="curve" smooth="yes"/>
      <point x="396" y="450"/>
      <point x="472" y="385"/>
      <point x="472" y="267" type="curve" smooth="yes"/>
      <point x="472" y="239" type="line" smooth="yes"/>
      <point x="472" y="74"/>
      <point x="357" y="17"/>
      <point x="197" y="14" type="curve"/>
      <point x="203" y="-47" type="line"/>
      <point x="411" y="-41"/>
      <point x="558" y="55"/>
      <point x="558" y="253" type="curve" smooth="yes"/>
      <point x="558" y="418"/>
      <point x="449" y="510"/>
    </contour>
    <contour>
      <point x="242" y="162" type="curve" smooth="yes"/>
      <point x="215" y="162"/>
      <point x="199" y="180"/>
      <point x="199" y="208" type="curve" smooth="yes"/>
      <point x="199" y="236"/>
      <point x="215" y="254"/>
      <point x="242" y="254" type="curve" smooth="yes"/>
      <point x="269" y="254"/>
      <point x="285" y="236"/>
      <point x="285" y="208" type="curve" smooth="yes"/>
      <point x="285" y="180"/>
      <point x="269" y="162"/>
    </contour>
  </outline>
</glyph>
<glyph name="five-thai" format="1">
  <advance width="619"/>
  <unicode hex="0E55"/>
  <outline>
    <contour>
      <point x="451" y="347" type="curve" smooth="yes"/>
      <point x="389" y="347"/>
      <point x="343" y="308"/>
      <point x="343" y="246" type="curve" smooth="yes"/>
      <point x="343" y="227" type="line" smooth="yes"/>
      <point x="343" y="145"/>
      <point x="402" y="88"/>
      <point x="466" y="65" type="curve"/>
      <point x="466" y="60" type="line"/>
      <point x="330" y="60" type="line" smooth="yes"/>
      <point x="217" y="60"/>
      <point x="150" y="112"/>
      <point x="150" y="212" type="curve" smooth="yes"/>
      <point x="150" y="260" type="line" smooth="yes"/>
      <point x="150" y="353"/>
      <point x="210" y="385"/>
      <point x="289" y="404" type="curve" smooth="yes"/>
      <point x="450" y="443" type="line" smooth="yes"/>
      <point x="506" y="457"/>
      <point x="520" y="469"/>
      <point x="527" y="513" type="curve" smooth="yes"/>
      <point x="539" y="592" type="line"/>
      <point x="459" y="592" type="line"/>
      <point x="446" y="501" type="line"/>
      <point x="373" y="483" type="line"/>
      <point x="377" y="493"/>
      <point x="380" y="503"/>
      <point x="380" y="514" type="curve" smooth="yes" name="hr01"/>
      <point x="380" y="562"/>
      <point x="340" y="597"/>
      <point x="279" y="597" type="curve" smooth="yes"/>
      <point x="218" y="597"/>
      <point x="178" y="562"/>
      <point x="178" y="507" type="curve" smooth="yes"/>
      <point x="178" y="478"/>
      <point x="190" y="455"/>
      <point x="211" y="441" type="curve"/>
      <point x="136" y="415"/>
      <point x="64" y="364"/>
      <point x="64" y="240" type="curve" smooth="yes"/>
      <point x="64" y="85"/>
      <point x="165" y="0"/>
      <point x="330" y="0" type="curve" smooth="yes"/>
      <point x="572" y="0" type="line"/>
      <point x="572" y="60" type="line"/>
      <point x="496" y="62"/>
      <point x="443" y="107"/>
      <point x="428" y="162" type="curve"/>
      <point x="435" y="160"/>
      <point x="443" y="159"/>
      <point x="451" y="159" type="curve" smooth="yes"/>
      <point x="513" y="159"/>
      <point x="556" y="195"/>
      <point x="556" y="253" type="curve" smooth="yes"/>
      <point x="556" y="311"/>
      <point x="513" y="347"/>
    </contour>
    <contour>
      <point x="453" y="200" type="curve" smooth="yes"/>
      <point x="421" y="200"/>
      <point x="401" y="221"/>
      <point x="401" y="253" type="curve" smooth="yes" name="hr02"/>
      <point x="401" y="285"/>
      <point x="421" y="306"/>
      <point x="453" y="306" type="curve" smooth="yes"/>
      <point x="485" y="306"/>
      <point x="505" y="285"/>
      <point x="505" y="253" type="curve" smooth="yes"/>
      <point x="505" y="221"/>
      <point x="485" y="200"/>
    </contour>
    <contour>
      <point x="279" y="459" type="curve" smooth="yes"/>
      <point x="251" y="459"/>
      <point x="232" y="473"/>
      <point x="232" y="500" type="curve" smooth="yes"/>
      <point x="232" y="512" type="line" smooth="yes"/>
      <point x="232" y="539"/>
      <point x="251" y="553"/>
      <point x="279" y="553" type="curve" smooth="yes"/>
      <point x="307" y="553"/>
      <point x="326" y="539"/>
      <point x="326" y="512" type="curve" smooth="yes" name="hr03"/>
      <point x="326" y="500" type="line" smooth="yes"/>
      <point x="326" y="473"/>
      <point x="307" y="459"/>
    </contour>
  </outline>
</glyph>
<glyph name="seven-thai" format="1">
  <advance width="902"/>
  <unicode hex="0E57"/>
  <outline>
    <contour>
      <point x="219" y="-12" type="curve" smooth="yes"/>
      <point x="282" y="-12"/>
      <point x="325" y="26"/>
      <point x="325" y="85" type="curve" smooth="yes"/>
      <point x="325" y="144"/>
      <point x="285" y="182"/>
      <point x="228" y="182" type="curve" smooth="yes"/>
      <point x="201" y="182"/>
      <point x="178" y="175"/>
      <point x="161" y="160" type="curve"/>
      <point x="161" y="290" type="line" smooth="yes"/>
      <point x="161" y="390"/>
      <point x="180" y="450"/>
      <point x="239" y="450" type="curve" smooth="yes"/>
      <point x="294" y="450"/>
      <point x="306" y="403"/>
      <point x="310" y="358" type="curve"/>
      <point x="362" y="358" type="line"/>
      <point x="366" y="403"/>
      <point x="383" y="450"/>
      <point x="436" y="450" type="curve" smooth="yes"/>
      <point x="479" y="450"/>
      <point x="500" y="419"/>
      <point x="500" y="357" type="curve" smooth="yes"/>
      <point x="500" y="0" type="line" name="hr01"/>
      <point x="619" y="0" type="line" smooth="yes"/>
      <point x="738" y="0"/>
      <point x="808" y="64"/>
      <point x="808" y="165" type="curve" smooth="yes"/>
      <point x="808" y="592" type="line"/>
      <point x="728" y="592" type="line"/>
      <point x="728" y="171" type="line" smooth="yes"/>
      <point x="728" y="101"/>
      <point x="688" y="60"/>
      <point x="619" y="60" type="curve" smooth="yes"/>
      <point x="580" y="60" type="line"/>
      <point x="580" y="358" type="line" smooth="yes"/>
      <point x="580" y="454"/>
      <point x="539" y="510"/>
      <point x="454" y="510" type="curve" smooth="yes"/>
      <point x="393" y="510"/>
      <point x="352" y="483"/>
      <point x="340" y="429" type="curve"/>
      <point x="335" y="429" type="line"/>
      <point x="324" y="483"/>
      <point x="288" y="510"/>
      <point x="228" y="510" type="curve" smooth="yes"/>
      <point x="128" y="510"/>
      <point x="81" y="441"/>
      <point x="81" y="299" type="curve" smooth="yes"/>
      <point x="81" y="189" type="line" smooth="yes"/>
      <point x="81" y="41"/>
      <point x="145" y="-12"/>
    </contour>
    <contour>
      <point x="222" y="32" type="curve" smooth="yes"/>
      <point x="192" y="32"/>
      <point x="173" y="53"/>
      <point x="173" y="85" type="curve" smooth="yes"/>
      <point x="173" y="117"/>
      <point x="192" y="138"/>
      <point x="222" y="138" type="curve" smooth="yes"/>
      <point x="252" y="138"/>
      <point x="271" y="117"/>
      <point x="271" y="85" type="curve" smooth="yes"/>
      <point x="271" y="53"/>
      <point x="252" y="32"/>
    </contour>
  </outline>
</glyph>
<glyph name="arrowdownleftcorner" format="1">
  <advance width="820"/>
  <unicode hex="21B2"/>
  <outline>
    <contour>
      <point x="130" y="195" type="line" name="hr00"/>
      <point x="337" y="-12" type="line"/>
      <point x="385" y="36" type="line"/>
      <point x="299" y="122" type="line"/>
      <point x="249" y="164" type="line"/>
      <point x="250" y="167" type="line"/>
      <point x="346" y="161" type="line"/>
      <point x="627" y="161" type="line"/>
      <point x="627" y="698" type="line"/>
      <point x="559" y="698" type="line"/>
      <point x="559" y="229" type="line"/>
      <point x="346" y="229" type="line"/>
      <point x="250" y="223" type="line"/>
      <point x="249" y="226" type="line"/>
      <point x="299" y="268" type="line"/>
      <point x="385" y="354" type="line"/>
      <point x="337" y="402" type="line"/>
    </contour>
  </outline>
</glyph>
<glyph name="checkmark" format="1">
  <advance width="912"/>
  <unicode hex="2713"/>
  <outline>
    <contour>
      <point x="786" y="687" type="line" name="hr00"/>
      <point x="715" y="715" type="line"/>
      <point x="486" y="242" type="line"/>
      <point x="407" y="76" type="line"/>
      <point x="403" y="76" type="line"/>
      <point x="323" y="242" type="line"/>
      <point x="194" y="506" type="line"/>
      <point x="126" y="473" type="line"/>
      <point x="364" y="0" type="line"/>
      <point x="446" y="0" type="line"/>
    </contour>
  </outline>
</glyph>
<glyph name="arrowleftdowncorner" format="1">
  <advance width="820"/>
  <unicode hex="2B10"/>
  <outline>
    <contour>
      <point x="262" y="101" type="line" name="hr00"/>
      <point x="469" y="308" type="line"/>
      <point x="421" y="356" type="line"/>
      <point x="335" y="270" type="line"/>
      <point x="293" y="220" type="line"/>
      <point x="290" y="221" type="line"/>
      <point x="296" y="317" type="line"/>
      <point x="296" y="530" type="line"/>
      <point x="765" y="530" type="line"/>
      <point x="765" y="598" type="line"/>
      <point x="228" y="598" type="line"/>
      <point x="228" y="317" type="line"/>
      <point x="234" y="221" type="line"/>
      <point x="231" y="220" type="line"/>
      <point x="189" y="270" type="line"/>
      <point x="103" y="356" type="line"/>
      <point x="55" y="308" type="line"/>
    </contour>
  </outline>
</glyph>
<glyph name="reversedKhomut-thai" format="1">
  <advance width="1477"/>
  <unicode hex="EC00"/>
  <outline>
    <contour>
      <point x="1143" y="-12" type="curve" smooth="yes" name="hr00"/>
      <point x="1302" y="-12"/>
      <point x="1421" y="88"/>
      <point x="1421" y="273" type="curve" smooth="yes"/>
      <point x="1421" y="458"/>
      <point x="1308" y="558"/>
      <point x="1158" y="558" type="curve" smooth="yes"/>
      <point x="1046" y="558"/>
      <point x="947" y="489"/>
      <point x="947" y="388" type="curve" smooth="yes"/>
      <point x="947" y="314"/>
      <point x="994" y="273"/>
      <point x="1058" y="273" type="curve" smooth="yes"/>
      <point x="1122" y="273"/>
      <point x="1166" y="312"/>
      <point x="1166" y="372" type="curve" smooth="yes"/>
      <point x="1166" y="432"/>
      <point x="1124" y="468"/>
      <point x="1060" y="468" type="curve" smooth="yes"/>
      <point x="1053" y="468"/>
      <point x="1046" y="467"/>
      <point x="1040" y="466" type="curve"/>
      <point x="1039" y="467" type="line"/>
      <point x="1070" y="490"/>
      <point x="1112" y="498"/>
      <point x="1158" y="498" type="curve" smooth="yes"/>
      <point x="1263" y="498"/>
      <point x="1335" y="432"/>
      <point x="1335" y="309" type="curve" smooth="yes"/>
      <point x="1335" y="236" type="line" smooth="yes"/>
      <point x="1335" y="113"/>
      <point x="1252" y="48"/>
      <point x="1140" y="48" type="curve" smooth="yes"/>
      <point x="971" y="48"/>
      <point x="873" y="166"/>
      <point x="839" y="490" type="curve"/>
      <point x="755" y="490" type="line"/>
      <point x="656" y="180" type="line"/>
      <point x="654" y="180" type="line"/>
      <point x="569" y="450" type="line"/>
      <point x="502" y="450" type="line"/>
      <point x="427" y="212" type="line"/>
      <point x="425" y="212" type="line"/>
      <point x="357" y="425" type="line"/>
      <point x="291" y="425" type="line"/>
      <point x="268" y="324"/>
      <point x="234" y="268"/>
      <point x="142" y="268" type="curve" smooth="yes"/>
      <point x="76" y="268" type="line"/>
      <point x="76" y="208" type="line"/>
      <point x="144" y="208" type="line" smooth="yes"/>
      <point x="235" y="208"/>
      <point x="282" y="243"/>
      <point x="320" y="334" type="curve"/>
      <point x="322" y="334" type="line"/>
      <point x="394" y="107" type="line"/>
      <point x="460" y="107" type="line"/>
      <point x="536" y="344" type="line"/>
      <point x="538" y="344" type="line"/>
      <point x="623" y="75" type="line"/>
      <point x="690" y="75" type="line"/>
      <point x="787" y="384" type="line"/>
      <point x="789" y="384" type="line"/>
      <point x="834" y="101"/>
      <point x="962" y="-12"/>
    </contour>
    <contour>
      <point x="1060" y="317" type="curve" smooth="yes"/>
      <point x="1028" y="317"/>
      <point x="1008" y="339"/>
      <point x="1008" y="371" type="curve" smooth="yes"/>
      <point x="1008" y="403"/>
      <point x="1028" y="425"/>
      <point x="1060" y="425" type="curve" smooth="yes"/>
      <point x="1092" y="425"/>
      <point x="1112" y="403"/>
      <point x="1112" y="371" type="curve" smooth="yes"/>
      <point x="1112" y="339"/>
      <point x="1092" y="317"/>
    </contour>
  </outline>
</glyph>
<glyph name="paiyannoi_wisanchani-thai" format="1">
  <advance width="576"/>
  <unicode hex="EC02"/>
  <outline>
    <contour>
      <point x="487" y="148" type="line"/>
      <point x="487" y="208" type="line"/>
      <point x="452" y="208" type="line"/>
      <point x="452" y="546" type="line"/>
      <point x="371" y="546" type="line"/>
      <point x="371" y="465" type="line" smooth="yes"/>
      <point x="371" y="411"/>
      <point x="321" y="378"/>
      <point x="231" y="378" type="curve" smooth="yes"/>
      <point x="196" y="378" type="line"/>
      <point x="223" y="394"/>
      <point x="240" y="423"/>
      <point x="240" y="460" type="curve" smooth="yes"/>
      <point x="240" y="520"/>
      <point x="197" y="558"/>
      <point x="134" y="558" type="curve" smooth="yes" name="hr01"/>
      <point x="72" y="558"/>
      <point x="28" y="517"/>
      <point x="28" y="453" type="curve" smooth="yes"/>
      <point x="28" y="446" type="line" smooth="yes"/>
      <point x="28" y="359"/>
      <point x="106" y="318"/>
      <point x="210" y="318" type="curve" smooth="yes"/>
      <point x="306" y="318"/>
      <point x="349" y="354"/>
      <point x="367" y="397" type="curve"/>
      <point x="371" y="397" type="line"/>
      <point x="371" y="208" type="line"/>
      <point x="297" y="208" type="line" smooth="yes"/>
      <point x="269" y="208"/>
      <point x="253" y="221"/>
      <point x="253" y="255" type="curve" smooth="yes"/>
      <point x="253" y="268" type="line"/>
      <point x="173" y="268" type="line"/>
      <point x="173" y="250" type="line" smooth="yes"/>
      <point x="173" y="178"/>
      <point x="220" y="148"/>
      <point x="296" y="148" type="curve" smooth="yes"/>
      <point x="371" y="148" type="line"/>
      <point x="371" y="0" type="line"/>
      <point x="452" y="0" type="line"/>
      <point x="452" y="148" type="line"/>
    </contour>
    <contour>
      <point x="137" y="408" type="curve" smooth="yes"/>
      <point x="107" y="408"/>
      <point x="88" y="429"/>
      <point x="88" y="461" type="curve" smooth="yes"/>
      <point x="88" y="493"/>
      <point x="107" y="514"/>
      <point x="137" y="514" type="curve" smooth="yes"/>
      <point x="167" y="514"/>
      <point x="186" y="493"/>
      <point x="186" y="461" type="curve" smooth="yes" name="hr02"/>
      <point x="186" y="429"/>
      <point x="167" y="408"/>
    </contour>
  </outline>
</glyph>
<glyph name="tripleWisanchani-thai" format="1">
  <advance width="767"/>
  <unicode hex="EC04"/>
  <outline>
    <contour>
      <point x="58" y="424" type="curve" smooth="yes"/>
      <point x="58" y="358"/>
      <point x="111" y="324"/>
      <point x="208" y="324" type="curve" smooth="yes"/>
      <point x="333" y="324"/>
      <point x="384" y="379"/>
      <point x="384" y="480" type="curve" smooth="yes"/>
      <point x="384" y="488" type="line"/>
      <point x="304" y="488" type="line"/>
      <point x="304" y="480" type="line" smooth="yes"/>
      <point x="304" y="403"/>
      <point x="270" y="380"/>
      <point x="221" y="380" type="curve" smooth="yes"/>
      <point x="181" y="380" type="line"/>
      <point x="181" y="382" type="line"/>
      <point x="201" y="387"/>
      <point x="215" y="409"/>
      <point x="215" y="435" type="curve" smooth="yes"/>
      <point x="215" y="474"/>
      <point x="185" y="504"/>
      <point x="138" y="504" type="curve" smooth="yes"/>
      <point x="91" y="504"/>
      <point x="58" y="474"/>
    </contour>
    <contour>
      <point x="58" y="184" type="curve" smooth="yes"/>
      <point x="58" y="118"/>
      <point x="111" y="84"/>
      <point x="208" y="84" type="curve" smooth="yes"/>
      <point x="333" y="84"/>
      <point x="384" y="139"/>
      <point x="384" y="240" type="curve" smooth="yes"/>
      <point x="384" y="248" type="line"/>
      <point x="304" y="248" type="line"/>
      <point x="304" y="240" type="line" smooth="yes"/>
      <point x="304" y="163"/>
      <point x="270" y="140"/>
      <point x="221" y="140" type="curve" smooth="yes"/>
      <point x="181" y="140" type="line"/>
      <point x="181" y="142" type="line"/>
      <point x="201" y="147"/>
      <point x="215" y="169"/>
      <point x="215" y="195" type="curve" smooth="yes"/>
      <point x="215" y="234"/>
      <point x="185" y="264"/>
      <point x="138" y="264" type="curve" smooth="yes"/>
      <point x="91" y="264"/>
      <point x="58" y="234"/>
    </contour>
    <contour>
      <point x="378" y="320" type="curve" smooth="yes" name="hr01"/>
      <point x="378" y="254"/>
      <point x="431" y="220"/>
      <point x="528" y="220" type="curve" smooth="yes"/>
      <point x="653" y="220"/>
      <point x="704" y="275"/>
      <point x="704" y="376" type="curve" smooth="yes"/>
      <point x="704" y="384" type="line"/>
      <point x="624" y="384" type="line"/>
      <point x="624" y="376" type="line" smooth="yes"/>
      <point x="624" y="299"/>
      <point x="590" y="276"/>
      <point x="541" y="276" type="curve" smooth="yes"/>
      <point x="501" y="276" type="line"/>
      <point x="501" y="278" type="line"/>
      <point x="521" y="283"/>
      <point x="535" y="305"/>
      <point x="535" y="331" type="curve" smooth="yes"/>
      <point x="535" y="370"/>
      <point x="505" y="400"/>
      <point x="458" y="400" type="curve" smooth="yes"/>
      <point x="411" y="400"/>
      <point x="378" y="370"/>
    </contour>
    <contour>
      <point x="138" y="150" type="curve" smooth="yes"/>
      <point x="117" y="150"/>
      <point x="105" y="163"/>
      <point x="105" y="186" type="curve" smooth="yes"/>
      <point x="105" y="209"/>
      <point x="117" y="222"/>
      <point x="138" y="222" type="curve" smooth="yes" name="hr02"/>
      <point x="159" y="222"/>
      <point x="171" y="209"/>
      <point x="171" y="186" type="curve" smooth="yes"/>
      <point x="171" y="163"/>
      <point x="159" y="150"/>
    </contour>
    <contour>
      <point x="138" y="390" type="curve" smooth="yes"/>
      <point x="117" y="390"/>
      <point x="105" y="403"/>
      <point x="105" y="426" type="curve" smooth="yes"/>
      <point x="105" y="449"/>
      <point x="117" y="462"/>
      <point x="138" y="462" type="curve" smooth="yes"/>
      <point x="159" y="462"/>
      <point x="171" y="449"/>
      <point x="171" y="426" type="curve" smooth="yes"/>
      <point x="171" y="403"/>
      <point x="159" y="390"/>
    </contour>
    <contour>
      <point x="458" y="286" type="curve" smooth="yes"/>
      <point x="437" y="286"/>
      <point x="425" y="299"/>
      <point x="425" y="322" type="curve" smooth="yes"/>
      <point x="425" y="345"/>
      <point x="437" y="358"/>
      <point x="458" y="358" type="curve" smooth="yes"/>
      <point x="479" y="358"/>
      <point x="491" y="345"/>
      <point x="491" y="322" type="curve" smooth="yes"/>
      <point x="491" y="299"/>
      <point x="479" y="286"/>
    </contour>
  </outline>
</glyph>
<glyph name="tinKhru-thai" format="1">
  <advance width="1671"/>
  <unicode hex="EC06"/>
  <outline>
    <contour>
      <point x="35" y="236" type="line" name="hr00"/>
      <point x="795" y="236" type="line"/>
      <point x="795" y="-533" type="line"/>
      <point x="876" y="-533" type="line"/>
      <point x="876" y="236" type="line"/>
      <point x="1635" y="236" type="line"/>
      <point x="1635" y="296" type="line"/>
      <point x="876" y="296" type="line"/>
      <point x="876" y="1067" type="line"/>
      <point x="795" y="1067" type="line"/>
      <point x="795" y="296" type="line"/>
      <point x="35" y="296" type="line"/>
    </contour>
  </outline>
</glyph>
<glyph name="maiChattawa-thai.small" format="1">
  <advance width="0"/>
  <outline>
    <contour>
      <point x="73" y="940" type="line" name="hr00"/>
      <point x="73" y="995" type="line"/>
      <point x="-7" y="989" type="line"/>
      <point x="-1" y="1067" type="line"/>
      <point x="-61" y="1067" type="line"/>
      <point x="-55" y="989" type="line"/>
      <point x="-135" y="995" type="line"/>
      <point x="-135" y="940" type="line"/>
      <point x="-55" y="946" type="line"/>
      <point x="-61" y="868" type="line"/>
      <point x="-1" y="868" type="line"/>
      <point x="-7" y="946" type="line"/>
    </contour>
    <contour>
      <point x="0.0" y="800.0" type="move" name="_topright"/>
    </contour>
  </outline>
</glyph>
<glyph name="maiEk-thai.small" format="1">
  <advance width="0"/>
  <outline>
    <contour>
      <point x="2" y="1018" type="line" name="hr00"/>
      <point x="-76" y="1018" type="line"/>
      <point x="-64" y="868" type="line"/>
      <point x="-9" y="868" type="line"/>
    </contour>
    <contour>
      <point x="0.0" y="800.0" type="move" name="_topright"/>
    </contour>
  </outline>
</glyph>
<glyph name="maiTho-thai.small" format="1">
  <advance width="0"/>
  <outline>
    <contour>
      <point x="-179" y="868" type="line" name="hr00"/>
      <point x="19" y="868" type="line" smooth="yes"/>
      <point x="68" y="868"/>
      <point x="85" y="890"/>
      <point x="103" y="933" type="curve" smooth="yes"/>
      <point x="148" y="1039" type="line"/>
      <point x="80" y="1039" type="line"/>
      <point x="35" y="915" type="line"/>
      <point x="-85" y="915" type="line"/>
      <point x="-85" y="922" type="line"/>
      <point x="-37" y="946"/>
      <point x="-25" y="971"/>
      <point x="-25" y="1002" type="curve" smooth="yes"/>
      <point x="-25" y="1049"/>
      <point x="-58" y="1079"/>
      <point x="-108" y="1079" type="curve" smooth="yes"/>
      <point x="-158" y="1079"/>
      <point x="-191" y="1049"/>
      <point x="-191" y="1002" type="curve" smooth="yes"/>
      <point x="-191" y="962"/>
      <point x="-166" y="935"/>
      <point x="-125" y="930" type="curve"/>
      <point x="-125" y="928" type="line"/>
      <point x="-179" y="897" type="line"/>
    </contour>
    <contour>
      <point x="-109" y="960" type="curve" smooth="yes"/>
      <point x="-133" y="960"/>
      <point x="-149" y="975"/>
      <point x="-149" y="1001" type="curve" smooth="yes"/>
      <point x="-149" y="1027"/>
      <point x="-133" y="1042"/>
      <point x="-109" y="1042" type="curve" smooth="yes"/>
      <point x="-85" y="1042"/>
      <point x="-69" y="1027"/>
      <point x="-69" y="1001" type="curve" smooth="yes"/>
      <point x="-69" y="975"/>
      <point x="-85" y="960"/>
    </contour>
    <contour>
      <point x="0.0" y="800.0" type="move" name="_topright"/>
    </contour>
  </outline>
</glyph>
<glyph name="maiTri-thai.narrow" format="1">
  <advance width="0"/>
  <outline>
    <contour>
      <point x="-408" y="645" type="curve" smooth="yes"/>
      <point x="-374" y="645"/>
      <point x="-347" y="668"/>
      <point x="-347" y="703" type="curve" smooth="yes"/>
      <point x="-347" y="738"/>
      <point x="-374" y="761"/>
      <point x="-408" y="761" type="curve" smooth="yes"/>
      <point x="-412" y="761"/>
      <point x="-416" y="760"/>
      <point x="-420" y="760" type="curve"/>
      <point x="-418" y="783"/>
      <point x="-402" y="794"/>
      <point x="-384" y="794" type="curve" smooth="yes"/>
      <point x="-353" y="794"/>
      <point x="-340" y="776"/>
      <point x="-335" y="737" type="curve"/>
      <point x="-297" y="737" type="line"/>
      <point x="-293" y="776"/>
      <point x="-278" y="794"/>
      <point x="-248" y="794" type="curve" smooth="yes"/>
      <point x="-224" y="794"/>
      <point x="-206" y="776"/>
      <point x="-212" y="740" type="curve" smooth="yes"/>
      <point x="-226" y="653" type="line" name="hr01"/>
      <point x="-122" y="653" type="line" smooth="yes"/>
      <point x="-75" y="653"/>
      <point x="-55" y="670"/>
      <point x="-45" y="721" type="curve" smooth="yes"/>
      <point x="-25" y="824" type="line"/>
      <point x="-91" y="824" type="line"/>
      <point x="-112" y="700" type="line"/>
      <point x="-175" y="700" type="line"/>
      <point x="-175" y="702" type="line"/>
      <point x="-160" y="718"/>
      <point x="-151" y="745"/>
      <point x="-151" y="771" type="curve" smooth="yes"/>
      <point x="-151" y="813"/>
      <point x="-180" y="844"/>
      <point x="-230" y="844" type="curve" smooth="yes"/>
      <point x="-272" y="844"/>
      <point x="-303" y="823"/>
      <point x="-312" y="782" type="curve"/>
      <point x="-318" y="782" type="line"/>
      <point x="-330" y="823"/>
      <point x="-355" y="844"/>
      <point x="-397" y="844" type="curve" smooth="yes"/>
      <point x="-452" y="844"/>
      <point x="-481" y="806"/>
      <point x="-481" y="743" type="curve" smooth="yes"/>
      <point x="-481" y="682"/>
      <point x="-452" y="645"/>
    </contour>
    <contour>
      <point x="-409" y="672" type="curve" smooth="yes"/>
      <point x="-427" y="672"/>
      <point x="-440" y="685"/>
      <point x="-440" y="703" type="curve" smooth="yes"/>
      <point x="-440" y="721"/>
      <point x="-427" y="734"/>
      <point x="-409" y="734" type="curve" smooth="yes"/>
      <point x="-391" y="734"/>
      <point x="-378" y="721"/>
      <point x="-378" y="703" type="curve" smooth="yes"/>
      <point x="-378" y="685"/>
      <point x="-391" y="672"/>
    </contour>
    <contour>
      <point x="0.0" y="600.0" type="move" name="_topright"/>
    </contour>
    <contour>
      <point x="-131.0" y="800.0" type="move" name="topright"/>
    </contour>
  </outline>
</glyph>
<glyph name="maiTri-thai.small" format="1">
  <advance width="0"/>
  <outline>
    <contour>
      <point x="-266" y="860" type="curve" smooth="yes"/>
      <point x="-232" y="860"/>
      <point x="-205" y="883"/>
      <point x="-205" y="918" type="curve" smooth="yes"/>
      <point x="-205" y="953"/>
      <point x="-232" y="976"/>
      <point x="-266" y="976" type="curve" smooth="yes"/>
      <point x="-270" y="976"/>
      <point x="-274" y="975"/>
      <point x="-278" y="975" type="curve"/>
      <point x="-276" y="998"/>
      <point x="-260" y="1009"/>
      <point x="-242" y="1009" type="curve" smooth="yes"/>
      <point x="-211" y="1009"/>
      <point x="-198" y="991"/>
      <point x="-193" y="952" type="curve"/>
      <point x="-155" y="952" type="line"/>
      <point x="-151" y="991"/>
      <point x="-136" y="1009"/>
      <point x="-106" y="1009" type="curve" smooth="yes"/>
      <point x="-82" y="1009"/>
      <point x="-64" y="991"/>
      <point x="-70" y="955" type="curve" smooth="yes"/>
      <point x="-84" y="868" type="line" name="hr01"/>
      <point x="40" y="868" type="line" smooth="yes"/>
      <point x="87" y="868"/>
      <point x="107" y="885"/>
      <point x="117" y="936" type="curve" smooth="yes"/>
      <point x="137" y="1039" type="line"/>
      <point x="71" y="1039" type="line"/>
      <point x="50" y="915" type="line"/>
      <point x="-33" y="915" type="line"/>
      <point x="-33" y="917" type="line"/>
      <point x="-18" y="933"/>
      <point x="-9" y="960"/>
      <point x="-9" y="986" type="curve" smooth="yes"/>
      <point x="-9" y="1028"/>
      <point x="-38" y="1059"/>
      <point x="-88" y="1059" type="curve" smooth="yes"/>
      <point x="-130" y="1059"/>
      <point x="-161" y="1038"/>
      <point x="-170" y="997" type="curve"/>
      <point x="-176" y="997" type="line"/>
      <point x="-188" y="1038"/>
      <point x="-213" y="1059"/>
      <point x="-255" y="1059" type="curve" smooth="yes"/>
      <point x="-310" y="1059"/>
      <point x="-339" y="1021"/>
      <point x="-339" y="958" type="curve" smooth="yes"/>
      <point x="-339" y="897"/>
      <point x="-310" y="860"/>
    </contour>
    <contour>
      <point x="-267" y="887" type="curve" smooth="yes"/>
      <point x="-285" y="887"/>
      <point x="-298" y="900"/>
      <point x="-298" y="918" type="curve" smooth="yes"/>
      <point x="-298" y="936"/>
      <point x="-285" y="949"/>
      <point x="-267" y="949" type="curve" smooth="yes"/>
      <point x="-249" y="949"/>
      <point x="-236" y="936"/>
      <point x="-236" y="918" type="curve" smooth="yes"/>
      <point x="-236" y="900"/>
      <point x="-249" y="887"/>
    </contour>
    <contour>
      <point x="0.0" y="800.0" type="move" name="_topright"/>
    </contour>
  </outline>
</glyph>
<glyph name="maitaikhu-thai.small" format="1">
  <advance width="0"/>
  <outline>
    <contour>
      <point x="-308" y="860" type="curve" smooth="yes"/>
      <point x="-259" y="860"/>
      <point x="-236" y="888"/>
      <point x="-228" y="928" type="curve"/>
      <point x="-224" y="928" type="line"/>
      <point x="-206" y="882"/>
      <point x="-163" y="860"/>
      <point x="-110" y="860" type="curve" smooth="yes"/>
      <point x="-48" y="860"/>
      <point x="-13" y="894"/>
      <point x="-13" y="943" type="curve" smooth="yes"/>
      <point x="-13" y="978"/>
      <point x="-38" y="1005"/>
      <point x="-79" y="1005" type="curve" smooth="yes"/>
      <point x="-116" y="1005"/>
      <point x="-140" y="985"/>
      <point x="-140" y="953" type="curve" smooth="yes"/>
      <point x="-140" y="936"/>
      <point x="-133" y="923"/>
      <point x="-121" y="914" type="curve"/>
      <point x="-122" y="913" type="line"/>
      <point x="-158" y="917"/>
      <point x="-179" y="940"/>
      <point x="-186" y="979" type="curve"/>
      <point x="-241" y="979" type="line"/>
      <point x="-242" y="939"/>
      <point x="-258" y="918"/>
      <point x="-285" y="918" type="curve" smooth="yes" name="hr01"/>
      <point x="-312" y="918"/>
      <point x="-329" y="935"/>
      <point x="-329" y="966" type="curve" smooth="yes"/>
      <point x="-329" y="1004"/>
      <point x="-304" y="1024"/>
      <point x="-261" y="1024" type="curve" smooth="yes"/>
      <point x="-95" y="1024" type="line" smooth="yes"/>
      <point x="-53" y="1024"/>
      <point x="-38" y="1042"/>
      <point x="-30" y="1075" type="curve" smooth="yes"/>
      <point x="-17" y="1127" type="line"/>
      <point x="-92" y="1140" type="line"/>
      <point x="-107" y="1078" type="line"/>
      <point x="-272" y="1078" type="line" smooth="yes"/>
      <point x="-349" y="1078"/>
      <point x="-396" y="1032"/>
      <point x="-396" y="961" type="curve" smooth="yes"/>
      <point x="-396" y="898"/>
      <point x="-358" y="860"/>
    </contour>
    <contour>
      <point x="-78" y="916" type="curve" smooth="yes"/>
      <point x="-97" y="916"/>
      <point x="-109" y="927"/>
      <point x="-109" y="946" type="curve" smooth="yes"/>
      <point x="-109" y="965"/>
      <point x="-97" y="976"/>
      <point x="-78" y="976" type="curve" smooth="yes"/>
      <point x="-59" y="976"/>
      <point x="-47" y="965"/>
      <point x="-47" y="946" type="curve" smooth="yes"/>
      <point x="-47" y="927"/>
      <point x="-59" y="916"/>
    </contour>
    <contour>
      <point x="0.0" y="800.0" type="move" name="_topright"/>
    </contour>
  </outline>
</glyph>
<glyph name="nikhahit-thai.small" format="1">
  <advance width="0"/>
  <outline>
    <contour>
      <point x="-38" y="860" type="curve" smooth="yes" name="hr00"/>
      <point x="26" y="860"/>
      <point x="68" y="898"/>
      <point x="68" y="958" type="curve" smooth="yes"/>
      <point x="68" y="1018"/>
      <point x="26" y="1056"/>
      <point x="-38" y="1056" type="curve" smooth="yes"/>
      <point x="-102" y="1056"/>
      <point x="-144" y="1018"/>
      <point x="-144" y="958" type="curve" smooth="yes"/>
      <point x="-144" y="898"/>
      <point x="-102" y="860"/>
    </contour>
    <contour>
      <point x="-38" y="906" type="curve" smooth="yes"/>
      <point x="-68" y="906"/>
      <point x="-85" y="925"/>
      <point x="-85" y="950" type="curve" smooth="yes"/>
      <point x="-85" y="966" type="line" smooth="yes"/>
      <point x="-85" y="991"/>
      <point x="-68" y="1010"/>
      <point x="-38" y="1010" type="curve" smooth="yes"/>
      <point x="-8" y="1010"/>
      <point x="9" y="991"/>
      <point x="9" y="966" type="curve" smooth="yes"/>
      <point x="9" y="950" type="line" smooth="yes"/>
      <point x="9" y="925"/>
      <point x="-8" y="906"/>
    </contour>
    <contour>
      <point x="0.0" y="800.0" type="move" name="_topright"/>
    </contour>
  </outline>
</glyph>
<glyph name="saraI-thai.narrow" format="1">
  <advance width="0"/>
  <outline>
    <contour>
      <point x="-56" y="653" type="line" name="hr00"/>
      <point x="-56" y="676" type="line" smooth="yes"/>
      <point x="-56" y="778"/>
      <point x="-139" y="845"/>
      <point x="-261" y="845" type="curve" smooth="yes"/>
      <point x="-383" y="845"/>
      <point x="-466" y="778"/>
      <point x="-466" y="676" type="curve" smooth="yes"/>
      <point x="-466" y="653" type="line"/>
    </contour>
    <contour>
      <point x="-261" y="781" type="curve" smooth="yes"/>
      <point x="-189" y="781"/>
      <point x="-134" y="749"/>
      <point x="-124" y="705" type="curve"/>
      <point x="-397" y="705" type="line"/>
      <point x="-388" y="749"/>
      <point x="-332" y="781"/>
    </contour>
    <contour>
      <point x="0.0" y="600.0" type="move" name="_topright"/>
    </contour>
    <contour>
      <point x="-56.0" y="840.0" type="move" name="topright"/>
    </contour>
  </outline>
</glyph>
<glyph name="saraIi-thai.narrow" format="1">
  <advance width="0"/>
  <outline>
    <contour>
      <point x="-459" y="653" type="line" name="hr00"/>
      <point x="-49" y="653" type="line"/>
      <point x="-49" y="892" type="line"/>
      <point x="-127" y="892" type="line"/>
      <point x="-127" y="773" type="line"/>
      <point x="-131" y="773" type="line"/>
      <point x="-154" y="818"/>
      <point x="-203" y="845"/>
      <point x="-269" y="845" type="curve" smooth="yes"/>
      <point x="-383" y="845"/>
      <point x="-459" y="778"/>
      <point x="-459" y="676" type="curve" smooth="yes"/>
    </contour>
    <contour>
      <point x="-254" y="781" type="curve" smooth="yes"/>
      <point x="-180" y="781"/>
      <point x="-127" y="749"/>
      <point x="-117" y="705" type="curve"/>
      <point x="-390" y="705" type="line"/>
      <point x="-381" y="749"/>
      <point x="-327" y="781"/>
    </contour>
    <contour>
      <point x="0.0" y="600.0" type="move" name="_topright"/>
    </contour>
    <contour>
      <point x="-49.0" y="880.0" type="move" name="topright"/>
    </contour>
  </outline>
</glyph>
<glyph name="saraUe-thai.narrow" format="1">
  <advance width="0"/>
  <outline>
    <contour>
      <point x="-102" y="675" type="curve" smooth="yes"/>
      <point x="-43" y="675"/>
      <point x="-2" y="711"/>
      <point x="-2" y="767" type="curve" smooth="yes"/>
      <point x="-2" y="823"/>
      <point x="-43" y="859"/>
      <point x="-102" y="859" type="curve" smooth="yes"/>
      <point x="-145" y="859"/>
      <point x="-178" y="839"/>
      <point x="-193" y="807" type="curve"/>
      <point x="-220" y="831"/>
      <point x="-258" y="845"/>
      <point x="-306" y="845" type="curve" smooth="yes" name="hr01"/>
      <point x="-423" y="845"/>
      <point x="-496" y="778"/>
      <point x="-496" y="676" type="curve" smooth="yes"/>
      <point x="-496" y="653" type="line"/>
      <point x="-126" y="653" type="line"/>
      <point x="-126" y="677" type="line"/>
      <point x="-118" y="675"/>
      <point x="-110" y="675"/>
    </contour>
    <contour>
      <point x="-291" y="781" type="curve" smooth="yes"/>
      <point x="-255" y="781"/>
      <point x="-225" y="774"/>
      <point x="-202" y="762" type="curve"/>
      <point x="-201" y="739"/>
      <point x="-192" y="719"/>
      <point x="-179" y="705" type="curve" name="hr03"/>
      <point x="-427" y="705" type="line"/>
      <point x="-418" y="749"/>
      <point x="-366" y="781"/>
    </contour>
    <contour>
      <point x="-102" y="716" type="curve" smooth="yes" name="hr04"/>
      <point x="-131" y="716"/>
      <point x="-149" y="736"/>
      <point x="-149" y="767" type="curve" smooth="yes"/>
      <point x="-149" y="798"/>
      <point x="-131" y="818"/>
      <point x="-102" y="818" type="curve" smooth="yes"/>
      <point x="-73" y="818"/>
      <point x="-55" y="798"/>
      <point x="-55" y="767" type="curve" smooth="yes"/>
      <point x="-55" y="736"/>
      <point x="-73" y="716"/>
    </contour>
    <contour>
      <point x="0.0" y="600.0" type="move" name="_topright"/>
    </contour>
    <contour>
      <point x="-126.0" y="880.0" type="move" name="topright"/>
    </contour>
  </outline>
</glyph>
<glyph name="saraUee-thai.narrow" format="1">
  <advance width="0"/>
  <outline>
    <contour>
      <point x="-470" y="653" type="line" name="hr00"/>
      <point x="-60" y="653" type="line"/>
      <point x="-60" y="892" type="line"/>
      <point x="-138" y="892" type="line"/>
      <point x="-138" y="769" type="line"/>
      <point x="-151" y="790"/>
      <point x="-172" y="808"/>
      <point x="-197" y="821" type="curve"/>
      <point x="-197" y="892" type="line"/>
      <point x="-268" y="892" type="line"/>
      <point x="-268" y="843" type="line"/>
      <point x="-277" y="844"/>
      <point x="-286" y="845"/>
      <point x="-295" y="845" type="curve" smooth="yes"/>
      <point x="-398" y="845"/>
      <point x="-470" y="778"/>
      <point x="-470" y="676" type="curve" smooth="yes"/>
    </contour>
    <contour>
      <point x="-275" y="781" type="curve" smooth="yes"/>
      <point x="-190" y="781"/>
      <point x="-137" y="749"/>
      <point x="-128" y="705" type="curve"/>
      <point x="-402" y="705" type="line"/>
      <point x="-394" y="750"/>
      <point x="-344" y="781"/>
    </contour>
    <contour>
      <point x="0.0" y="600.0" type="move" name="_topright"/>
    </contour>
    <contour>
      <point x="-60.0" y="880.0" type="move" name="topright"/>
    </contour>
  </outline>
</glyph>
<glyph name="six-thai.sups" format="1">
  <advance width="455"/>
  <outline>
    <contour>
      <point x="214" y="334" type="curve" smooth="yes" name="hr00"/>
      <point x="335" y="334"/>
      <point x="415" y="406"/>
      <point x="415" y="523" type="curve" smooth="yes"/>
      <point x="415" y="640"/>
      <point x="348" y="709"/>
      <point x="246" y="709" type="curve" smooth="yes"/>
      <point x="177" y="709"/>
      <point x="128" y="677"/>
      <point x="112" y="626" type="curve"/>
      <point x="106" y="626" type="line"/>
      <point x="85" y="769" type="line"/>
      <point x="12" y="769" type="line"/>
      <point x="48" y="577" type="line"/>
      <point x="112" y="577" type="line"/>
      <point x="125" y="620"/>
      <point x="162" y="650"/>
      <point x="224" y="650" type="curve" smooth="yes"/>
      <point x="291" y="650"/>
      <point x="334" y="616"/>
      <point x="334" y="553" type="curve" smooth="yes"/>
      <point x="334" y="494" type="line" smooth="yes"/>
      <point x="334" y="430"/>
      <point x="289" y="392"/>
      <point x="214" y="392" type="curve" smooth="yes"/>
      <point x="176" y="392"/>
      <point x="145" y="399"/>
      <point x="122" y="412" type="curve"/>
      <point x="123" y="414" type="line"/>
      <point x="131" y="414" type="line" smooth="yes"/>
      <point x="173" y="414"/>
      <point x="204" y="439"/>
      <point x="204" y="478" type="curve" smooth="yes"/>
      <point x="204" y="519"/>
      <point x="173" y="546"/>
      <point x="131" y="546" type="curve" smooth="yes"/>
      <point x="84" y="546"/>
      <point x="50" y="511"/>
      <point x="50" y="458" type="curve" smooth="yes"/>
      <point x="50" y="376"/>
      <point x="129" y="334"/>
    </contour>
    <contour>
      <point x="130" y="442" type="curve" smooth="yes"/>
      <point x="110" y="442"/>
      <point x="97" y="455"/>
      <point x="97" y="477" type="curve" smooth="yes"/>
      <point x="97" y="499"/>
      <point x="110" y="512"/>
      <point x="130" y="512" type="curve" smooth="yes"/>
      <point x="150" y="512"/>
      <point x="163" y="499"/>
      <point x="163" y="477" type="curve" smooth="yes"/>
      <point x="163" y="455"/>
      <point x="150" y="442"/>
    </contour>
  </outline>
</glyph>
<glyph name="thanthakhat-thai.small" format="1">
  <advance width="0"/>
  <outline>
    <contour>
      <point x="-85" y="860" type="curve" smooth="yes"/>
      <point x="-27" y="860"/>
      <point x="12" y="897"/>
      <point x="12" y="946" type="curve" smooth="yes"/>
      <point x="12" y="967"/>
      <point x="3" y="986"/>
      <point x="-20" y="999" type="curve"/>
      <point x="-19" y="1002" type="line"/>
      <point x="-9" y="1001"/>
      <point x="0" y="1001"/>
      <point x="10" y="1001" type="curve" smooth="yes" name="hr01"/>
      <point x="89" y="1001" type="line" smooth="yes"/>
      <point x="131" y="1001"/>
      <point x="146" y="1019"/>
      <point x="154" y="1052" type="curve" smooth="yes"/>
      <point x="167" y="1104" type="line"/>
      <point x="92" y="1117" type="line"/>
      <point x="77" y="1057" type="line"/>
      <point x="-58" y="1057" type="line" smooth="yes"/>
      <point x="-144" y="1057"/>
      <point x="-187" y="1021"/>
      <point x="-187" y="954" type="curve" smooth="yes"/>
      <point x="-187" y="897"/>
      <point x="-147" y="860"/>
    </contour>
    <contour>
      <point x="-85" y="1002" type="curve" smooth="yes" name="hr02"/>
      <point x="-55" y="1002"/>
      <point x="-38" y="983"/>
      <point x="-38" y="953" type="curve" smooth="yes"/>
      <point x="-38" y="923"/>
      <point x="-55" y="904"/>
      <point x="-85" y="904" type="curve" smooth="yes"/>
      <point x="-115" y="904"/>
      <point x="-132" y="923"/>
      <point x="-132" y="953" type="curve" smooth="yes"/>
      <point x="-132" y="983"/>
      <point x="-115" y="1002"/>
    </contour>
    <contour>
      <point x="0.0" y="800.0" type="move" name="_topright"/>
    </contour>
  </outline>
</glyph>
